<svg width="127" height="146" viewBox="0 0 127 146" fill="none" xmlns="http://www.w3.org/2000/svg">
<g clip-path="url(#clip0_1060_481)">
<g clip-path="url(#clip1_1060_481)">
<path d="M122.715 37.7204C117.39 52.7848 102.294 76.0539 85.4203 78.1207C83.8431 78.3135 81.3445 77.0709 80.4764 77.4386C79.6819 77.7759 73.2785 89.2282 70.9168 91.8039C59.3033 104.481 33.5184 109.232 18.1116 102.14C16.8795 99.5943 19.0126 100.026 20.7344 100.311C43.6629 104.099 66.4894 100.325 76.4867 76.7431C76.554 75.2917 62.2815 70.2685 63.4764 58.6061C64.1853 51.6829 67.989 43.4383 76.075 45.871C85.9473 48.8413 86.6033 65.7433 82.739 73.8608C96.1903 76.8264 108.667 57.8848 114.929 47.5233C117.166 43.826 117.256 36.0288 122.713 37.7164L122.715 37.7204ZM79.0372 72.6838C84.2896 66.5682 81.9819 46.1414 71.5223 49.1926C61.805 52.0282 68.3894 73.1272 79.0372 72.6838Z" fill="#333333"/>
<path d="M20.7798 89.4459L10.7694 103.884C14.2676 105.458 19.5729 105.109 21.2435 109.263C20.1505 112.7 7.13999 106.346 5.26824 104.17C2.93947 101.027 13.3518 92.9959 15.9661 91.0668C17.5562 89.8905 18.3441 88.048 20.7798 89.4459Z" fill="#333333"/>
</g>
</g>
<defs>
<clipPath id="clip0_1060_481">
<rect width="76.4366" height="124.009" fill="white" transform="translate(59.3455) rotate(28.5911)"/>
</clipPath>
<clipPath id="clip1_1060_481">
<rect width="92.9264" height="101.374" fill="white" transform="translate(34.4981 9.62393) rotate(17.6376)"/>
</clipPath>
</defs>
</svg>
