<svg width="17" height="21" viewBox="0 0 17 21" fill="none" xmlns="http://www.w3.org/2000/svg">
<path d="M10.6195 18.7555V20.9954H11.9303V18.2012C11.5121 18.4279 11.0831 18.608 10.6195 18.7555ZM2.7679 7.74892V13.2799C3.09505 13.9133 3.53595 14.4785 4.06675 14.9427V6.07412C3.53595 6.53838 3.09505 7.10351 2.7679 7.74783V7.74892ZM2.7679 7.74892V13.2799C3.09505 13.9133 3.53595 14.4785 4.06675 14.9427V6.07412C3.53595 6.53838 3.09505 7.10351 2.7679 7.74783V7.74892ZM10.6195 5.16947V15.8474C11.094 15.6207 11.5349 15.3267 11.9303 14.9763V6.0405C11.5349 5.69013 11.094 5.39618 10.6195 5.16947ZM2.7679 7.74892V13.2799C3.09505 13.9133 3.53595 14.4785 4.06675 14.9427V6.07412C3.53595 6.53838 3.09505 7.10351 2.7679 7.74783V7.74892ZM9.95328 16.7639C9.94245 16.7748 9.9197 16.7748 9.90778 16.7867C9.96411 16.7759 10.0204 16.7639 10.0659 16.7303C10.0324 16.7412 9.99769 16.7531 9.95328 16.7639ZM4.89221 4.76271C4.97129 4.7063 5.06228 4.66074 5.1522 4.61519C5.02762 4.67159 4.90413 4.728 4.79038 4.80718C4.82396 4.7844 4.85863 4.77355 4.89221 4.76162V4.76271ZM2.05619 7.80532V7.78254C2.01069 7.87257 1.96628 7.96369 1.94353 8.05372C1.97711 7.97454 2.01178 7.8845 2.05619 7.80532ZM1.76262 8.57438C1.77346 8.52882 1.7962 8.48435 1.80812 8.42686C1.76262 8.51689 1.73987 8.60801 1.71821 8.69804C1.72904 8.65248 1.74096 8.61885 1.76371 8.5733L1.76262 8.57438ZM1.46905 10.6104V10.5204C1.46905 10.4075 1.46905 10.2936 1.4918 10.1808C1.4918 10.0908 1.50264 9.99969 1.50264 9.90966C1.47989 10.1136 1.45714 10.3056 1.45714 10.5095C1.45714 10.7134 1.46797 10.5778 1.46797 10.6115L1.46905 10.6104ZM2.7679 7.74892V13.2799C3.09505 13.9133 3.53595 14.4785 4.06675 14.9427V6.07412C3.53595 6.53838 3.09505 7.10351 2.7679 7.74783V7.74892ZM8.58618 2.5V3.95894C8.59702 3.96978 8.60893 3.96978 8.63168 3.96978H8.67718C8.69993 3.96978 8.73351 3.98063 8.76709 3.98063C8.80067 3.99148 8.83534 3.99148 8.857 3.99148C8.95883 4.00232 9.04874 4.01426 9.13974 4.03704C9.17332 4.03704 9.20798 4.04788 9.24157 4.04788C9.26431 4.05873 9.2979 4.05873 9.33148 4.07066C9.38781 4.08151 9.44414 4.09344 9.50047 4.11622C9.65863 4.14985 9.80595 4.1954 9.96303 4.24096C10.1439 4.29737 10.3357 4.3657 10.5166 4.44489C10.5393 4.45573 10.5502 4.45573 10.5729 4.46767C10.5837 4.46767 10.6065 4.46767 10.6184 4.47851C10.6256 4.47851 10.6332 4.48213 10.6412 4.48936C10.743 4.53492 10.8221 4.57939 10.912 4.63688C11.0019 4.67051 11.0929 4.71606 11.1828 4.76162C11.2955 4.82996 11.4092 4.89721 11.5099 4.96555C11.589 5.01111 11.6681 5.06751 11.7472 5.11307C11.8035 5.14669 11.8718 5.19225 11.9281 5.23781C11.9353 5.24504 11.9429 5.24866 11.9508 5.24866C12.0418 5.31699 12.1317 5.39618 12.2217 5.47536C12.369 5.6001 12.5152 5.73569 12.6506 5.87128C12.7189 5.93962 12.7969 6.0188 12.8651 6.09799C12.9442 6.17717 13.0125 6.25635 13.0688 6.33554C13.1479 6.40387 13.2042 6.48306 13.2605 6.56224C13.2833 6.59587 13.306 6.61865 13.3288 6.6642C13.3515 6.69783 13.3743 6.73254 13.397 6.76617C13.6234 7.0829 13.8152 7.43326 13.9733 7.79556C14.0069 7.86389 14.0416 7.95393 14.0751 8.03311C14.086 8.05589 14.086 8.06674 14.0979 8.08951C14.177 8.27066 14.2441 8.43988 14.3016 8.63295C14.3351 8.76854 14.3806 8.90413 14.4142 9.05165C14.4142 9.09721 14.425 9.14168 14.437 9.18724C14.4478 9.26643 14.4705 9.33476 14.4825 9.41395C14.4933 9.49313 14.4933 9.56147 14.5052 9.64065C14.528 9.74261 14.5388 9.85542 14.5507 9.96823H15.9969C15.7488 5.97541 12.5737 2.78528 8.58618 2.50217V2.5ZM2.7679 7.74892V13.2799C3.09505 13.9133 3.53595 14.4785 4.06675 14.9427V6.07412C3.53595 6.53838 3.09505 7.10351 2.7679 7.74783V7.74892ZM2.7679 7.74892V13.2799C3.09505 13.9133 3.53595 14.4785 4.06675 14.9427V6.07412C3.53595 6.53838 3.09505 7.10351 2.7679 7.74783V7.74892ZM6.68828 19.0375V19.3879C6.68828 19.5462 6.56371 19.6818 6.40555 19.6818H5.37752L4.06675 19.6927V18.199C3.60419 17.9615 3.1633 17.6903 2.7679 17.3736V20.9932H6.69912C7.97522 20.9932 7.98713 19.7263 7.98713 19.6807V19.1492C7.54624 19.1492 7.10643 19.1156 6.68828 19.0364V19.0375Z" fill="#007B83"/>
<path d="M16.0303 10.4978V10.5087C16.0303 14.943 12.449 18.5399 8.00975 18.5399C3.57048 18.5399 0 14.943 0 10.5087C0 6.07436 2.57603 3.58604 6.06635 2.72586V4.2412C5.94177 4.28676 5.81828 4.33123 5.6937 4.37679C5.61462 4.39957 5.53554 4.4332 5.45647 4.46682C5.35464 4.51238 5.25281 4.55685 5.15098 4.61434C5.02641 4.67075 4.90291 4.72715 4.78917 4.80634C4.75559 4.82912 4.71009 4.85189 4.67651 4.87467C4.47285 4.97664 4.27028 5.11223 4.08937 5.25975C4.08937 5.25975 4.07854 5.25975 4.07854 5.27059H4.06771V5.28144C3.54773 5.66651 3.08517 6.12968 2.71253 6.66119C2.68978 6.68397 2.67894 6.70675 2.66703 6.72953C2.64428 6.74038 2.64428 6.75231 2.64428 6.76316C2.62153 6.774 2.6107 6.78593 2.6107 6.80871C2.57712 6.84234 2.55437 6.87705 2.53162 6.92152C2.42979 7.05711 2.35071 7.20463 2.27163 7.363C2.23805 7.40856 2.2153 7.45303 2.19255 7.51052C2.13622 7.60055 2.09072 7.69167 2.05714 7.7817C2.01165 7.87173 1.96723 7.96285 1.94448 8.05288C1.88815 8.17762 1.84265 8.30127 1.80907 8.42602C1.76357 8.51605 1.74083 8.60716 1.71916 8.69719C1.68558 8.78723 1.66283 8.87834 1.65091 8.96837C1.62817 9.002 1.62817 9.03671 1.62817 9.07034C1.61733 9.13867 1.59458 9.19508 1.59458 9.26233C1.561 9.40985 1.53825 9.54544 1.52634 9.69187C1.5155 9.7255 1.5155 9.76021 1.5155 9.79384C1.5155 9.82746 1.5155 9.87302 1.50467 9.90665C1.48192 10.1106 1.45917 10.3026 1.45917 10.5065C1.45917 10.7104 1.47001 10.5748 1.47001 10.6085C1.47001 10.6421 1.48084 10.6876 1.48084 10.7213V10.7896C1.48084 10.8232 1.49167 10.8688 1.49167 10.9024C1.49167 11.0044 1.50251 11.1063 1.51442 11.2083C1.52525 11.3439 1.53717 11.4795 1.55992 11.6042C1.58267 11.7398 1.60542 11.8646 1.639 11.9893C1.64983 12.0793 1.67258 12.1704 1.70724 12.2605C1.77549 12.5089 1.85457 12.7464 1.9564 12.984C1.96723 13.0295 1.98998 13.0632 2.0019 13.0968C2.02464 13.1651 2.04739 13.2324 2.09181 13.3007C2.19364 13.5155 2.29546 13.7194 2.41896 13.9114C2.42979 13.945 2.44171 13.9678 2.47529 14.0014C2.58795 14.1706 2.70169 14.3409 2.81435 14.4993C2.8826 14.5893 2.94976 14.6685 3.01801 14.7477C3.10792 14.8605 3.20975 14.9744 3.32349 15.0753C3.46974 15.2337 3.61706 15.3812 3.78605 15.5048C3.84238 15.5504 3.91063 15.6068 3.96696 15.6524C4.13595 15.7879 4.30603 15.9127 4.48693 16.0255C4.56601 16.0819 4.65592 16.1383 4.74692 16.1839C4.83683 16.2522 4.93866 16.2967 5.04049 16.3422C5.16506 16.4106 5.28856 16.4778 5.41313 16.5234C5.46946 16.557 5.51496 16.5798 5.57129 16.5917C5.72945 16.6601 5.88761 16.7165 6.0566 16.7609C6.26026 16.8293 6.47475 16.8857 6.68923 16.9301V1.62922C6.68923 1.46 6.56466 1.32333 6.39567 1.32333H4.06879V2.87338C3.60623 3.10009 3.17617 3.38211 2.76994 3.71078V0.00106812H7.68368L8 0.645386C8 0.645386 8.15816 0.00106812 8.94895 0.00106812H10.6204C10.6204 0.00106812 11.9312 0.0010682 11.9312 1.31357V2.85169C11.5131 2.62498 11.0722 2.44492 10.6204 2.2974V1.6303C10.6204 1.46109 10.485 1.32442 10.3269 1.32442H8V17.0592H8.01083C8.13541 17.0592 8.2589 17.0484 8.38348 17.0365H8.48531C8.60988 17.0256 8.74529 17.0256 8.8807 17.0028C8.91428 17.0137 8.95978 17.0028 8.99336 16.992C9.13961 16.9692 9.2761 16.9464 9.41151 16.9128C9.58158 16.8792 9.75057 16.8445 9.90873 16.7881C9.96506 16.7772 10.0214 16.7653 10.0669 16.7316C10.1005 16.7316 10.1351 16.7208 10.1687 16.698C10.2142 16.6872 10.2478 16.6872 10.2814 16.6644C10.315 16.6535 10.3496 16.6416 10.394 16.6188C10.4504 16.608 10.5067 16.5852 10.5749 16.5505C10.5858 16.5505 10.5977 16.5397 10.6204 16.5277C11.083 16.3357 11.5239 16.0754 11.9312 15.7695C11.9312 15.7587 11.942 15.7587 11.942 15.7587L11.9529 15.7478C12.4956 15.3519 12.9701 14.8659 13.3536 14.3117C13.4099 14.2433 13.4554 14.1761 13.5009 14.1077C13.5691 14.0058 13.6363 13.9038 13.6818 13.8018C13.8064 13.5871 13.919 13.3604 14.0209 13.1347C14.2126 12.716 14.348 12.2757 14.439 11.8222H12.4739V10.4989H16.0325L16.0303 10.4978Z" fill="#007B83"/>
</svg>
