<svg width="164" height="24" viewBox="0 0 164 24" fill="none" xmlns="http://www.w3.org/2000/svg">
<path d="M2.38095 2.4C2.38095 0.48 3.96825 0 4.7619 0H14.2857H19.0476C26.1905 0 28.5714 4.2 28.5714 6.6C28.5714 8.52 26.9048 8.82 26.2798 8.82C25.6548 8.82 24.5684 8.73 23.8095 7.2C23.0506 5.67 21.2769 5.06589 20.2381 4.935C16.0714 4.41 14.2857 7.2 14.2857 12C14.2857 16.8 14.2857 19.2 19.0476 19.2C20.9524 19.2 22.2619 19.08 22.3809 20.76C22.3809 20.76 22.6542 24 21.4881 24H11.9048H9.52381H4.7619C3.96825 24 2.38095 23.52 2.38095 21.6C2.38095 19.68 3.96825 19.2 4.7619 19.2H7.14285C7.9365 19.2 9.52381 18.72 9.52381 16.8C9.52381 14.88 7.9365 14.4 7.14285 14.4H2.38095C1.5873 14.4 0 13.92 0 12C0 10.08 1.5873 9.6 2.38095 9.6H4.7619C5.55555 9.6 7.14285 9.12 7.14285 7.2C7.14285 5.28 5.55555 4.8 4.7619 4.8C3.96825 4.8 2.38095 4.32 2.38095 2.4Z" fill="url(#paint0_linear_1060_461)"/>
<path d="M18.4673 11.04V15.795C20.372 15.795 21.1652 15.7266 21.4286 14.955C21.9048 13.56 25.119 13.635 25.4762 15.315V22.92C25.4762 23.688 25.9623 24 26.2798 24H29.1667C30 24 30 23.28 30 22.92V14.4C30 11.04 26.1905 11.04 24.7619 11.04C23.3333 11.04 22.2222 11.68 21.4286 12C21.4286 11.136 19.2609 11 18.4673 11.04Z" fill="url(#paint1_linear_1060_461)"/>
<path d="M87.36 19.2C86.2933 19.2 85.3 19.0267 84.38 18.68C83.4733 18.32 82.68 17.82 82 17.18C81.3333 16.5267 80.8133 15.76 80.44 14.88C80.0667 14 79.88 13.04 79.88 12C79.88 10.96 80.0667 10 80.44 9.12C80.8133 8.24 81.34 7.48 82.02 6.84C82.7 6.18667 83.4933 5.68667 84.4 5.34C85.3067 4.98 86.3 4.8 87.38 4.8C88.5267 4.8 89.5733 5 90.52 5.4C91.4667 5.78667 92.2667 6.36667 92.92 7.14L91.24 8.72C90.7333 8.17333 90.1667 7.76667 89.54 7.5C88.9133 7.22 88.2333 7.08 87.5 7.08C86.7667 7.08 86.0933 7.2 85.48 7.44C84.88 7.68 84.3533 8.02 83.9 8.46C83.46 8.9 83.1133 9.42 82.86 10.02C82.62 10.62 82.5 11.28 82.5 12C82.5 12.72 82.62 13.38 82.86 13.98C83.1133 14.58 83.46 15.1 83.9 15.54C84.3533 15.98 84.88 16.32 85.48 16.56C86.0933 16.8 86.7667 16.92 87.5 16.92C88.2333 16.92 88.9133 16.7867 89.54 16.52C90.1667 16.24 90.7333 15.82 91.24 15.26L92.92 16.86C92.2667 17.62 91.4667 18.2 90.52 18.6C89.5733 19 88.52 19.2 87.36 19.2ZM94.9955 19V8.32H97.3755V11.26L97.0955 10.4C97.4155 9.68 97.9155 9.13333 98.5955 8.76C99.2888 8.38667 100.149 8.2 101.175 8.2V10.58C101.069 10.5533 100.969 10.54 100.875 10.54C100.782 10.5267 100.689 10.52 100.595 10.52C99.6488 10.52 98.8955 10.8 98.3355 11.36C97.7755 11.9067 97.4955 12.7267 97.4955 13.82V19H94.9955ZM108.219 19.14C107.032 19.14 105.992 18.9067 105.099 18.44C104.219 17.96 103.532 17.3067 103.039 16.48C102.559 15.6533 102.319 14.7133 102.319 13.66C102.319 12.5933 102.552 11.6533 103.019 10.84C103.499 10.0133 104.152 9.36667 104.979 8.9C105.819 8.43333 106.772 8.2 107.839 8.2C108.879 8.2 109.805 8.42667 110.619 8.88C111.432 9.33333 112.072 9.97333 112.539 10.8C113.005 11.6267 113.239 12.6 113.239 13.72C113.239 13.8267 113.232 13.9467 113.219 14.08C113.219 14.2133 113.212 14.34 113.199 14.46H104.299V12.8H111.879L110.899 13.32C110.912 12.7067 110.785 12.1667 110.519 11.7C110.252 11.2333 109.885 10.8667 109.419 10.6C108.965 10.3333 108.439 10.2 107.839 10.2C107.225 10.2 106.685 10.3333 106.219 10.6C105.765 10.8667 105.405 11.24 105.139 11.72C104.885 12.1867 104.759 12.74 104.759 13.38V13.78C104.759 14.42 104.905 14.9867 105.199 15.48C105.492 15.9733 105.905 16.3533 106.439 16.62C106.972 16.8867 107.585 17.02 108.279 17.02C108.879 17.02 109.419 16.9267 109.899 16.74C110.379 16.5533 110.805 16.26 111.179 15.86L112.519 17.4C112.039 17.96 111.432 18.3933 110.699 18.7C109.979 18.9933 109.152 19.14 108.219 19.14ZM121.927 19V16.84L121.787 16.38V12.6C121.787 11.8667 121.567 11.3 121.127 10.9C120.687 10.4867 120.02 10.28 119.127 10.28C118.527 10.28 117.934 10.3733 117.347 10.56C116.774 10.7467 116.287 11.0067 115.887 11.34L114.907 9.52C115.48 9.08 116.16 8.75333 116.947 8.54C117.747 8.31333 118.574 8.2 119.427 8.2C120.974 8.2 122.167 8.57333 123.007 9.32C123.86 10.0533 124.287 11.1933 124.287 12.74V19H121.927ZM118.567 19.14C117.767 19.14 117.067 19.0067 116.467 18.74C115.867 18.46 115.4 18.08 115.067 17.6C114.747 17.1067 114.587 16.5533 114.587 15.94C114.587 15.34 114.727 14.8 115.007 14.32C115.3 13.84 115.774 13.46 116.427 13.18C117.08 12.9 117.947 12.76 119.027 12.76H122.127V14.42H119.207C118.354 14.42 117.78 14.56 117.487 14.84C117.194 15.1067 117.047 15.44 117.047 15.84C117.047 16.2933 117.227 16.6533 117.587 16.92C117.947 17.1867 118.447 17.32 119.087 17.32C119.7 17.32 120.247 17.18 120.727 16.9C121.22 16.62 121.574 16.2067 121.787 15.66L122.207 17.16C121.967 17.7867 121.534 18.2733 120.907 18.62C120.294 18.9667 119.514 19.14 118.567 19.14ZM131.515 19.14C130.342 19.14 129.435 18.84 128.795 18.24C128.155 17.6267 127.835 16.7267 127.835 15.54V5.96H130.335V15.48C130.335 15.9867 130.462 16.38 130.715 16.66C130.982 16.94 131.349 17.08 131.815 17.08C132.375 17.08 132.842 16.9333 133.215 16.64L133.915 18.42C133.622 18.66 133.262 18.84 132.835 18.96C132.409 19.08 131.969 19.14 131.515 19.14ZM126.075 10.32V8.32H133.195V10.32H126.075ZM135.972 19V8.32H138.472V19H135.972ZM137.232 6.56C136.765 6.56 136.379 6.41333 136.072 6.12C135.779 5.82667 135.632 5.47333 135.632 5.06C135.632 4.63333 135.779 4.28 136.072 4C136.379 3.70667 136.765 3.56 137.232 3.56C137.699 3.56 138.079 3.7 138.372 3.98C138.679 4.24667 138.832 4.58667 138.832 5C138.832 5.44 138.685 5.81333 138.392 6.12C138.099 6.41333 137.712 6.56 137.232 6.56ZM144.593 19L140.013 8.32H142.613L146.553 17.74H145.273L149.353 8.32H151.753L147.173 19H144.593ZM158.043 19.14C156.856 19.14 155.816 18.9067 154.923 18.44C154.043 17.96 153.356 17.3067 152.863 16.48C152.383 15.6533 152.143 14.7133 152.143 13.66C152.143 12.5933 152.376 11.6533 152.843 10.84C153.323 10.0133 153.976 9.36667 154.803 8.9C155.643 8.43333 156.596 8.2 157.663 8.2C158.703 8.2 159.629 8.42667 160.443 8.88C161.256 9.33333 161.896 9.97333 162.363 10.8C162.829 11.6267 163.063 12.6 163.063 13.72C163.063 13.8267 163.056 13.9467 163.043 14.08C163.043 14.2133 163.036 14.34 163.023 14.46H154.123V12.8H161.703L160.723 13.32C160.736 12.7067 160.609 12.1667 160.343 11.7C160.076 11.2333 159.709 10.8667 159.243 10.6C158.789 10.3333 158.263 10.2 157.663 10.2C157.049 10.2 156.509 10.3333 156.043 10.6C155.589 10.8667 155.229 11.24 154.963 11.72C154.709 12.1867 154.583 12.74 154.583 13.38V13.78C154.583 14.42 154.729 14.9867 155.023 15.48C155.316 15.9733 155.729 16.3533 156.263 16.62C156.796 16.8867 157.409 17.02 158.103 17.02C158.703 17.02 159.243 16.9267 159.723 16.74C160.203 16.5533 160.629 16.26 161.003 15.86L162.343 17.4C161.863 17.96 161.256 18.3933 160.523 18.7C159.803 18.9933 158.976 19.14 158.043 19.14Z" fill="#393939"/>
<path d="M44.42 19.2C43.3267 19.2 42.32 19.0267 41.4 18.68C40.4933 18.32 39.7 17.82 39.02 17.18C38.34 16.5267 37.8133 15.76 37.44 14.88C37.0667 14 36.88 13.04 36.88 12C36.88 10.96 37.0667 10 37.44 9.12C37.8133 8.24 38.34 7.48 39.02 6.84C39.7133 6.18667 40.52 5.68667 41.44 5.34C42.36 4.98 43.3667 4.8 44.46 4.8C45.6467 4.8 46.7133 4.99333 47.66 5.38C48.62 5.76667 49.4267 6.33333 50.08 7.08L48.44 8.68C47.8933 8.13333 47.3 7.73333 46.66 7.48C46.0333 7.21333 45.34 7.08 44.58 7.08C43.8467 7.08 43.1667 7.2 42.54 7.44C41.9133 7.68 41.3733 8.02 40.92 8.46C40.4667 8.9 40.1133 9.42 39.86 10.02C39.62 10.62 39.5 11.28 39.5 12C39.5 12.7067 39.62 13.36 39.86 13.96C40.1133 14.56 40.4667 15.0867 40.92 15.54C41.3733 15.98 41.9067 16.32 42.52 16.56C43.1333 16.8 43.8133 16.92 44.56 16.92C45.2533 16.92 45.92 16.8133 46.56 16.6C47.2133 16.3733 47.8333 16 48.42 15.48L49.9 17.42C49.1667 18.0067 48.3133 18.4533 47.34 18.76C46.38 19.0533 45.4067 19.2 44.42 19.2ZM49.9 17.42L47.44 17.08V11.84H49.9V17.42ZM57.6092 19.14C56.5826 19.14 55.6559 18.9133 54.8292 18.46C54.0159 17.9933 53.3759 17.3533 52.9092 16.54C52.4426 15.7267 52.2092 14.7667 52.2092 13.66C52.2092 12.5533 52.4426 11.5933 52.9092 10.78C53.3759 9.96667 54.0159 9.33333 54.8292 8.88C55.6559 8.42667 56.5826 8.2 57.6092 8.2C58.5026 8.2 59.3026 8.4 60.0092 8.8C60.7159 9.18667 61.2759 9.78 61.6892 10.58C62.1026 11.38 62.3092 12.4067 62.3092 13.66C62.3092 14.9 62.1092 15.9267 61.7092 16.74C61.3092 17.54 60.7559 18.14 60.0492 18.54C59.3426 18.94 58.5292 19.14 57.6092 19.14ZM57.9092 17C58.5092 17 59.0426 16.8667 59.5092 16.6C59.9892 16.3333 60.3692 15.9467 60.6492 15.44C60.9426 14.9333 61.0892 14.34 61.0892 13.66C61.0892 12.9667 60.9426 12.3733 60.6492 11.88C60.3692 11.3733 59.9892 10.9867 59.5092 10.72C59.0426 10.4533 58.5092 10.32 57.9092 10.32C57.3092 10.32 56.7692 10.4533 56.2892 10.72C55.8226 10.9867 55.4426 11.3733 55.1492 11.88C54.8692 12.3733 54.7292 12.9667 54.7292 13.66C54.7292 14.34 54.8692 14.9333 55.1492 15.44C55.4426 15.9467 55.8226 16.3333 56.2892 16.6C56.7692 16.8667 57.3092 17 57.9092 17ZM61.1492 19V16.48L61.2492 13.64L61.0492 10.8V4.16H63.5292V19H61.1492ZM66.8197 19V8.32H69.1997V11.2L68.7797 10.32C69.153 9.64 69.693 9.12 70.3997 8.76C71.1197 8.38667 71.9464 8.2 72.8797 8.2C73.733 8.2 74.493 8.36667 75.1597 8.7C75.8397 9.03333 76.373 9.54667 76.7597 10.24C77.1464 10.92 77.3397 11.8 77.3397 12.88V19H74.8397V13.2C74.8397 12.2533 74.613 11.5467 74.1597 11.08C73.7197 10.6133 73.0997 10.38 72.2997 10.38C71.713 10.38 71.193 10.5 70.7397 10.74C70.2864 10.98 69.933 11.34 69.6797 11.82C69.4397 12.2867 69.3197 12.88 69.3197 13.6V19H66.8197Z" fill="url(#paint2_linear_1060_461)"/>
<defs>
<linearGradient id="paint0_linear_1060_461" x1="15" y1="-15.6667" x2="14.4379" y2="23.637" gradientUnits="userSpaceOnUse">
<stop stop-color="#F3D98C"/>
<stop offset="0.5" stop-color="#C9A24D"/>
<stop offset="1" stop-color="#8F6B2C"/>
</linearGradient>
<linearGradient id="paint1_linear_1060_461" x1="15" y1="-15.6667" x2="14.4379" y2="23.637" gradientUnits="userSpaceOnUse">
<stop stop-color="#F3D98C"/>
<stop offset="0.5" stop-color="#C9A24D"/>
<stop offset="1" stop-color="#8F6B2C"/>
</linearGradient>
<linearGradient id="paint2_linear_1060_461" x1="57.5" y1="8.08163" x2="57.5" y2="17.1429" gradientUnits="userSpaceOnUse">
<stop stop-color="#C8B06A"/>
<stop offset="0.504808" stop-color="#9E7C2F"/>
<stop offset="1" stop-color="#6F5320"/>
</linearGradient>
</defs>
</svg>
