<?xml version="1.0" encoding="UTF-8"?>
<svg id="Calque_1" xmlns="http://www.w3.org/2000/svg" version="1.1" viewBox="0 0 2048 2048">
  <!-- Generator: Adobe Illustrator 29.2.0, SVG Export Plug-In . SVG Version: 2.1.0 Build 108)  -->
  <defs>
    <style>
      .st0 {
        fill: none;
      }
    </style>
  </defs>
  <path d="M1284.2,1812.1v206.5h121v-257.6c-38.6,20.9-78.2,37.5-121,51.1ZM559.4,797.4v509.9c30.2,58.4,70.9,110.5,119.9,153.3v-817.6c-49,42.8-89.7,94.9-119.9,154.3ZM559.4,797.4v509.9c30.2,58.4,70.9,110.5,119.9,153.3v-817.6c-49,42.8-89.7,94.9-119.9,154.3ZM1284.2,559.6v984.4c43.8-20.9,84.5-48,121-80.3v-823.8c-36.5-32.3-77.2-59.4-121-80.3ZM559.4,797.4v509.9c30.2,58.4,70.9,110.5,119.9,153.3v-817.6c-49,42.8-89.7,94.9-119.9,154.3ZM1222.7,1628.5c-1,1-3.1,1-4.2,2.1,5.2-1,10.4-2.1,14.6-5.2-3.1,1-6.3,2.1-10.4,3.1ZM755.5,522.1c7.3-5.2,15.7-9.4,24-13.6-11.5,5.2-22.9,10.4-33.4,17.7,3.1-2.1,6.3-3.1,9.4-4.2ZM493.7,802.6v-2.1c-4.2,8.3-8.3,16.7-10.4,25,3.1-7.3,6.3-15.6,10.4-22.9ZM466.6,873.5c1-4.2,3.1-8.3,4.2-13.6-4.2,8.3-6.3,16.7-8.3,25,1-4.2,2.1-7.3,4.2-11.5ZM439.5,1061.2v-8.3c0-10.4,0-20.9,2.1-31.3,0-8.3,1-16.7,1-25-2.1,18.8-4.2,36.5-4.2,55.3s1,6.3,1,9.4ZM559.4,797.4v509.9c30.2,58.4,70.9,110.5,119.9,153.3v-817.6c-49,42.8-89.7,94.9-119.9,154.3ZM1096.5,313.5v134.5c1,1,2.1,1,4.2,1h4.2c2.1,0,5.2,1,8.3,1,3.1,1,6.3,1,8.3,1,9.4,1,17.7,2.1,26.1,4.2,3.1,0,6.3,1,9.4,1,2.1,1,5.2,1,8.3,2.1,5.2,1,10.4,2.1,15.6,4.2,14.6,3.1,28.2,7.3,42.7,11.5,16.7,5.2,34.4,11.5,51.1,18.8,2.1,1,3.1,1,5.2,2.1,1,0,3.1,0,4.2,1q1,0,2.1,1c9.4,4.2,16.7,8.3,25,13.6,8.3,3.1,16.7,7.3,25,11.5,10.4,6.3,20.9,12.5,30.2,18.8,7.3,4.2,14.6,9.4,21.9,13.6,5.2,3.1,11.5,7.3,16.7,11.5q1,1,2.1,1c8.4,6.3,16.7,13.6,25,20.9,13.6,11.5,27.1,24,39.6,36.5,6.3,6.3,13.5,13.6,19.8,20.9,7.3,7.3,13.6,14.6,18.8,21.9,7.3,6.3,12.5,13.6,17.7,20.9,2.1,3.1,4.2,5.2,6.3,9.4,2.1,3.1,4.2,6.3,6.3,9.4,20.9,29.2,38.6,61.5,53.2,94.9,3.1,6.3,6.3,14.6,9.4,21.9,1,2.1,1,3.1,2.1,5.2,7.3,16.7,13.5,32.3,18.8,50.1,3.1,12.5,7.3,25,10.4,38.6,0,4.2,1,8.3,2.1,12.5,1,7.3,3.1,13.6,4.2,20.9,1,7.3,1,13.6,2.1,20.9,2.1,9.4,3.1,19.8,4.2,30.2h133.5c-22.9-368.1-316-662.2-684.1-688.3ZM559.4,797.4v509.9c30.2,58.4,70.9,110.5,119.9,153.3v-817.6c-49,42.8-89.7,94.9-119.9,154.3ZM559.4,797.4v509.9c30.2,58.4,70.9,110.5,119.9,153.3v-817.6c-49,42.8-89.7,94.9-119.9,154.3ZM921.3,1838.1v32.3c0,14.6-11.5,27.1-26.1,27.1h-94.9l-121,1v-137.7c-42.7-21.9-83.4-46.9-119.9-76.1v333.7h362.9c117.8,0,118.9-116.8,118.9-121v-49c-40.7,0-81.3-3.1-119.9-10.4Z"/>
  <path d="M1783.7,1050.8v1c0,408.8-330.6,740.4-740.4,740.4s-739.4-331.6-739.4-740.4,237.8-638.2,560-717.5v139.7c-11.5,4.2-22.9,8.3-34.4,12.5-7.3,2.1-14.6,5.2-21.9,8.3-9.4,4.2-18.8,8.3-28.2,13.6-11.5,5.2-22.9,10.4-33.4,17.7-3.1,2.1-7.3,4.2-10.4,6.3-18.8,9.4-37.5,21.9-54.2,35.5,0,0-1,0-1,1h-1v1c-48,35.5-90.7,78.2-125.1,127.2-2.1,2.1-3.1,4.2-4.2,6.3-2.1,1-2.1,2.1-2.1,3.1-2.1,1-3.1,2.1-3.1,4.2-3.1,3.1-5.2,6.3-7.3,10.4-9.4,12.5-16.7,26.1-24,40.7-3.1,4.2-5.2,8.3-7.3,13.6-5.2,8.3-9.4,16.7-12.5,25-4.2,8.3-8.3,16.7-10.4,25-5.2,11.5-9.4,22.9-12.5,34.4-4.2,8.3-6.3,16.7-8.3,25-3.1,8.3-5.2,16.7-6.3,25-2.1,3.1-2.1,6.3-2.1,9.4-1,6.3-3.1,11.5-3.1,17.7-3.1,13.6-5.2,26.1-6.3,39.6-1,3.1-1,6.3-1,9.4s0,7.3-1,10.4c-2.1,18.8-4.2,36.5-4.2,55.3s1,6.3,1,9.4,1,7.3,1,10.4v6.3c0,3.1,1,7.3,1,10.4,0,9.4,1,18.8,2.1,28.2,1,12.5,2.1,25,4.2,36.5,2.1,12.5,4.2,24,7.3,35.5,1,8.3,3.1,16.7,6.3,25,6.3,22.9,13.6,44.8,23,66.7,1,4.2,3.1,7.3,4.2,10.4,2.1,6.3,4.2,12.5,8.3,18.8,9.4,19.8,18.8,38.6,30.2,56.3,1,3.1,2.1,5.2,5.2,8.3,10.4,15.6,20.9,31.3,31.3,45.9,6.3,8.3,12.5,15.6,18.8,22.9,8.3,10.4,17.7,20.9,28.2,30.2,13.5,14.6,27.1,28.2,42.7,39.6,5.2,4.2,11.5,9.4,16.7,13.6,15.6,12.5,31.3,24,48,34.4,7.3,5.2,15.6,10.4,24,14.6,8.3,6.3,17.7,10.4,27.1,14.6,11.5,6.3,22.9,12.5,34.4,16.7,5.2,3.1,9.4,5.2,14.6,6.3,14.6,6.3,29.2,11.5,44.8,15.6,18.8,6.3,38.6,11.5,58.4,15.6V233.2c0-15.6-11.5-28.2-27.1-28.2h-214.8v142.9c-42.7,20.9-82.4,46.9-119.9,77.2V83.1h453.6l29.2,59.4s14.6-59.4,87.6-59.4h154.3s121,0,121,121v141.8c-38.6-20.9-79.3-37.5-121-51.1v-61.5c0-15.6-12.5-28.2-27.1-28.2h-214.8v1450.6h1c11.5,0,22.9-1,34.4-2.1h9.4c11.5-1,24-1,36.5-3.1,3.1,1,7.3,0,10.4-1,13.5-2.1,26.1-4.2,38.6-7.3,15.7-3.1,31.3-6.3,45.9-11.5,5.2-1,10.4-2.1,14.6-5.2,3.1,0,6.3-1,9.4-3.1,4.2-1,7.3-1,10.4-3.1,3.1-1,6.3-2.1,10.4-4.2,5.2-1,10.4-3.1,16.7-6.3,1,0,2.1-1,4.2-2.1,42.7-17.7,83.4-41.7,121-69.9,0-1,1-1,1-1l1-1c50.1-36.5,93.9-81.3,129.3-132.4,5.2-6.3,9.4-12.5,13.6-18.8,6.3-9.4,12.5-18.8,16.7-28.2,11.5-19.8,21.9-40.7,31.3-61.5,17.7-38.6,30.2-79.2,38.6-121h-181.4v-122h328.5Z"/>
  <path class="st0" d="M680.4,569l-1,1M1405.2,1536.7v-1h1M679.4,1460.6c-49-42.8-89.7-94.9-119.9-153.3M1405.2,639.9c-36.5-32.3-77.2-59.4-121-80.3M679.4,643.1c-49,42.8-89.7,94.9-119.9,154.3M1096.5,450.1c28.2,2.1,56.3,6.3,84.5,12.5,14.6,3.1,28.2,7.3,42.8,11.5,16.7,5.2,34.4,11.5,51.1,18.8,2.1,1,3.1,1,5.2,2.1,10.4,4.2,20.9,9.4,31.3,15.6,8.3,3.1,16.7,7.3,25,11.5,10.4,6.3,20.9,12.5,30.2,18.8,7.3,4.2,14.6,9.4,21.9,13.6,14.6,10.4,29.2,21.9,43.8,33.4,13.6,11.5,27.1,24,39.6,36.5,6.3,6.3,13.6,13.6,19.8,20.9,7.3,7.3,13.6,14.6,18.8,21.9,8.3,9.4,15.6,19.8,24,30.2,2.1,3.1,4.2,6.3,6.3,9.4,20.9,29.2,38.6,61.5,53.2,94.9,3.1,6.3,6.3,14.6,9.4,21.9,1,2.1,1,3.1,2.1,5.2,7.3,16.7,13.6,32.3,18.8,50.1,5.2,16.7,9.4,33.4,12.5,51.1,3.1,13.6,5.2,27.1,6.3,41.7,2.1,9.4,3.1,19.8,4.2,30.2M1043.3,447h-1"/>
  <path d="M1405.2,639.9c-36.5-32.3-77.2-59.4-121-80.3l121,80.3Z"/>
  <path d="M679.4,643.1c-49,42.8-89.7,94.9-119.9,154.3l119.9-154.3Z"/>
  <path class="st0" d="M1405.2,1463.8c-36.5,32.3-77.2,59.4-121,80.3"/>
  <path class="st0" d="M679.4,1460.6c-49-42.8-89.7-94.9-119.9-153.3"/>
  <line class="st0" x1="1043.3" y1="447" x2="1042.3" y2="447"/>
</svg>