<svg width="133" height="32" viewBox="0 0 133 32" fill="none" xmlns="http://www.w3.org/2000/svg">
<path d="M10.6194 24.7555V26.9954H11.9302V24.2012C11.512 24.4279 11.083 24.608 10.6194 24.7555ZM2.7678 13.7489V19.2799C3.09495 19.9133 3.53584 20.4785 4.06665 20.9427V12.0741C3.53584 12.5384 3.09495 13.1035 2.7678 13.7478V13.7489ZM2.7678 13.7489V19.2799C3.09495 19.9133 3.53584 20.4785 4.06665 20.9427V12.0741C3.53584 12.5384 3.09495 13.1035 2.7678 13.7478V13.7489ZM10.6194 11.1695V21.8474C11.0939 21.6207 11.5348 21.3267 11.9302 20.9763V12.0405C11.5348 11.6901 11.0939 11.3962 10.6194 11.1695ZM2.7678 13.7489V19.2799C3.09495 19.9133 3.53584 20.4785 4.06665 20.9427V12.0741C3.53584 12.5384 3.09495 13.1035 2.7678 13.7478V13.7489ZM9.95317 22.7639C9.94234 22.7748 9.91959 22.7748 9.90767 22.7867C9.96401 22.7759 10.0203 22.7639 10.0658 22.7303C10.0323 22.7412 9.99759 22.7531 9.95317 22.7639ZM4.8921 10.7627C4.97118 10.7063 5.06218 10.6607 5.15209 10.6152C5.02751 10.6716 4.90402 10.728 4.79027 10.8072C4.82386 10.7844 4.85852 10.7736 4.8921 10.7616V10.7627ZM2.05608 13.8053V13.7825C2.01059 13.8726 1.96617 13.9637 1.94342 14.0537C1.977 13.9745 2.01167 13.8845 2.05608 13.8053ZM1.76252 14.5744C1.77335 14.5288 1.7961 14.4843 1.80801 14.4269C1.76252 14.5169 1.73977 14.608 1.7181 14.698C1.72893 14.6525 1.74085 14.6189 1.7636 14.5733L1.76252 14.5744ZM1.46895 16.6104V16.5204C1.46895 16.4075 1.46895 16.2936 1.4917 16.1808C1.4917 16.0908 1.50253 15.9997 1.50253 15.9097C1.47978 16.1136 1.45703 16.3056 1.45703 16.5095C1.45703 16.7134 1.46786 16.5778 1.46786 16.6115L1.46895 16.6104ZM2.7678 13.7489V19.2799C3.09495 19.9133 3.53584 20.4785 4.06665 20.9427V12.0741C3.53584 12.5384 3.09495 13.1035 2.7678 13.7478V13.7489ZM8.58608 8.5V9.95894C8.59691 9.96978 8.60883 9.96978 8.63157 9.96978H8.67707C8.69982 9.96978 8.7334 9.98063 8.76698 9.98063C8.80057 9.99148 8.83523 9.99148 8.8569 9.99148C8.95872 10.0023 9.04864 10.0143 9.13963 10.037C9.17321 10.037 9.20788 10.0479 9.24146 10.0479C9.26421 10.0587 9.29779 10.0587 9.33137 10.0707C9.3877 10.0815 9.44403 10.0934 9.50036 10.1162C9.65852 10.1498 9.80585 10.1954 9.96292 10.241C10.1438 10.2974 10.3356 10.3657 10.5165 10.4449C10.5392 10.4557 10.5501 10.4557 10.5728 10.4677C10.5836 10.4677 10.6064 10.4677 10.6183 10.4785C10.6255 10.4785 10.6331 10.4821 10.6411 10.4894C10.7429 10.5349 10.822 10.5794 10.9119 10.6369C11.0018 10.6705 11.0928 10.7161 11.1827 10.7616C11.2954 10.83 11.4091 10.8972 11.5098 10.9655C11.5889 11.0111 11.668 11.0675 11.7471 11.1131C11.8034 11.1467 11.8717 11.1923 11.928 11.2378C11.9352 11.245 11.9428 11.2487 11.9507 11.2487C12.0417 11.317 12.1316 11.3962 12.2216 11.4754C12.3689 11.6001 12.5151 11.7357 12.6505 11.8713C12.7188 11.9396 12.7968 12.0188 12.865 12.098C12.9441 12.1772 13.0123 12.2564 13.0687 12.3355C13.1478 12.4039 13.2041 12.4831 13.2604 12.5622C13.2832 12.5959 13.3059 12.6186 13.3287 12.6642C13.3514 12.6978 13.3742 12.7325 13.3969 12.7662C13.6233 13.0829 13.8151 13.4333 13.9732 13.7956C14.0068 13.8639 14.0415 13.9539 14.075 14.0331C14.0859 14.0559 14.0859 14.0667 14.0978 14.0895C14.1769 14.2707 14.244 14.4399 14.3014 14.633C14.335 14.7685 14.3805 14.9041 14.4141 15.0517C14.4141 15.0972 14.4249 15.1417 14.4369 15.1872C14.4477 15.2664 14.4704 15.3348 14.4824 15.4139C14.4932 15.4931 14.4932 15.5615 14.5051 15.6407C14.5279 15.7426 14.5387 15.8554 14.5506 15.9682H15.9968C15.7487 11.9754 12.5736 8.78528 8.58608 8.50217V8.5ZM2.7678 13.7489V19.2799C3.09495 19.9133 3.53584 20.4785 4.06665 20.9427V12.0741C3.53584 12.5384 3.09495 13.1035 2.7678 13.7478V13.7489ZM2.7678 13.7489V19.2799C3.09495 19.9133 3.53584 20.4785 4.06665 20.9427V12.0741C3.53584 12.5384 3.09495 13.1035 2.7678 13.7478V13.7489ZM6.68818 25.0375V25.3879C6.68818 25.5462 6.5636 25.6818 6.40544 25.6818H5.37741L4.06665 25.6927V24.199C3.60409 23.9615 3.16319 23.6903 2.7678 23.3736V26.9932H6.69901C7.97511 26.9932 7.98702 25.7263 7.98702 25.6807V25.1492C7.54613 25.1492 7.10632 25.1156 6.68818 25.0364V25.0375Z" fill="#00F0FF"/>
<path d="M16.0302 16.4978V16.5087C16.0302 20.943 12.4489 24.5399 8.00963 24.5399C3.57036 24.5399 -0.00012207 20.943 -0.00012207 16.5087C-0.00012207 12.0744 2.57591 9.58605 6.06623 8.72588V10.2412C5.94165 10.2868 5.81816 10.3312 5.69358 10.3768C5.6145 10.3996 5.53542 10.4332 5.45634 10.4668C5.35452 10.5124 5.25269 10.5569 5.15086 10.6144C5.02628 10.6708 4.90279 10.7272 4.78905 10.8064C4.75546 10.8291 4.70997 10.8519 4.67638 10.8747C4.47273 10.9767 4.27016 11.1122 4.08925 11.2598C4.08925 11.2598 4.07842 11.2598 4.07842 11.2706H4.06758V11.2815C3.54761 11.6665 3.08505 12.1297 2.7124 12.6612C2.68965 12.684 2.67882 12.7068 2.66691 12.7295C2.64416 12.7404 2.64416 12.7523 2.64416 12.7632C2.62141 12.774 2.61058 12.7859 2.61058 12.8087C2.57699 12.8424 2.55424 12.8771 2.5315 12.9215C2.42967 13.0571 2.35059 13.2046 2.27151 13.363C2.23793 13.4086 2.21518 13.453 2.19243 13.5105C2.1361 13.6006 2.0906 13.6917 2.05702 13.7817C2.01152 13.8717 1.96711 13.9629 1.94436 14.0529C1.88803 14.1776 1.84253 14.3013 1.80895 14.426C1.76345 14.5161 1.7407 14.6072 1.71904 14.6972C1.68546 14.7872 1.66271 14.8784 1.65079 14.9684C1.62804 15.002 1.62804 15.0367 1.62804 15.0704C1.61721 15.1387 1.59446 15.1951 1.59446 15.2623C1.56088 15.4099 1.53813 15.5455 1.52621 15.6919C1.51538 15.7255 1.51538 15.7602 1.51538 15.7939C1.51538 15.8275 1.51538 15.873 1.50455 15.9067C1.4818 16.1106 1.45905 16.3026 1.45905 16.5065C1.45905 16.7104 1.46988 16.5748 1.46988 16.6085C1.46988 16.6421 1.48072 16.6877 1.48072 16.7213V16.7896C1.48072 16.8232 1.49155 16.8688 1.49155 16.9024C1.49155 17.0044 1.50238 17.1064 1.5143 17.2083C1.52513 17.3439 1.53705 17.4795 1.5598 17.6042C1.58255 17.7398 1.60529 17.8646 1.63888 17.9893C1.64971 18.0793 1.67246 18.1705 1.70712 18.2605C1.77537 18.5089 1.85445 18.7464 1.95628 18.984C1.96711 19.0295 1.98986 19.0632 2.00177 19.0968C2.02452 19.1651 2.04727 19.2324 2.09169 19.3007C2.19351 19.5155 2.29534 19.7194 2.41884 19.9114C2.42967 19.945 2.44158 19.9678 2.47517 20.0014C2.58783 20.1707 2.70157 20.341 2.81423 20.4993C2.88248 20.5894 2.94964 20.6685 3.01789 20.7477C3.1078 20.8605 3.20963 20.9744 3.32337 21.0753C3.46961 21.2337 3.61694 21.3812 3.78593 21.5049C3.84226 21.5504 3.91051 21.6068 3.96684 21.6524C4.13583 21.788 4.3059 21.9127 4.48681 22.0255C4.56589 22.0819 4.6558 22.1383 4.7468 22.1839C4.83671 22.2522 4.93854 22.2967 5.04037 22.3423C5.16494 22.4106 5.28844 22.4778 5.41301 22.5234C5.46934 22.557 5.51484 22.5798 5.57117 22.5917C5.72933 22.6601 5.88749 22.7165 6.05648 22.7609C6.26013 22.8293 6.47462 22.8857 6.68911 22.9302V7.62923C6.68911 7.46002 6.56454 7.32335 6.39554 7.32335H4.06867V8.8734C3.60611 9.1001 3.17605 9.38213 2.76982 9.71079V6.00108H7.68356L7.99988 6.6454C7.99988 6.6454 8.15804 6.00108 8.94883 6.00108H10.6203C10.6203 6.00108 11.9311 6.00108 11.9311 7.31358V8.8517C11.5129 8.625 11.0721 8.44494 10.6203 8.29742V7.63032C10.6203 7.4611 10.4849 7.32443 10.3268 7.32443H7.99988V23.0592H8.01071C8.13529 23.0592 8.25878 23.0484 8.38336 23.0365H8.48518C8.60976 23.0256 8.74517 23.0256 8.88058 23.0028C8.91416 23.0137 8.95966 23.0028 8.99324 22.992C9.13948 22.9692 9.27598 22.9464 9.41139 22.9128C9.58146 22.8792 9.75045 22.8445 9.90861 22.7881C9.96494 22.7772 10.0213 22.7653 10.0668 22.7317C10.1004 22.7317 10.135 22.7208 10.1686 22.698C10.2141 22.6872 10.2477 22.6872 10.2813 22.6644C10.3148 22.6536 10.3495 22.6416 10.3939 22.6189C10.4503 22.608 10.5066 22.5852 10.5748 22.5505C10.5857 22.5505 10.5976 22.5397 10.6203 22.5277C11.0829 22.3357 11.5238 22.0754 11.9311 21.7695C11.9311 21.7587 11.9419 21.7587 11.9419 21.7587L11.9528 21.7478C12.4955 21.3519 12.97 20.866 13.3534 20.3117C13.4098 20.2433 13.4553 20.1761 13.5008 20.1077C13.569 20.0058 13.6362 19.9038 13.6817 19.8019C13.8062 19.5871 13.9189 19.3604 14.0207 19.1348C14.2125 18.7161 14.3479 18.2757 14.4389 17.8223H12.4738V16.4989H16.0324L16.0302 16.4978Z" fill="#00F0FF"/>
<path d="M56.775 17.718C56.775 16.494 57.051 15.396 57.603 14.424C58.155 13.44 58.905 12.672 59.853 12.12C60.813 11.568 61.875 11.292 63.039 11.292C64.407 11.292 65.601 11.622 66.621 12.282C67.641 12.942 68.385 13.878 68.853 15.09H66.891C66.543 14.334 66.039 13.752 65.379 13.344C64.731 12.936 63.951 12.732 63.039 12.732C62.163 12.732 61.377 12.936 60.681 13.344C59.985 13.752 59.439 14.334 59.043 15.09C58.647 15.834 58.449 16.71 58.449 17.718C58.449 18.714 58.647 19.59 59.043 20.346C59.439 21.09 59.985 21.666 60.681 22.074C61.377 22.482 62.163 22.686 63.039 22.686C63.951 22.686 64.731 22.488 65.379 22.092C66.039 21.684 66.543 21.102 66.891 20.346H68.853C68.385 21.546 67.641 22.476 66.621 23.136C65.601 23.784 64.407 24.108 63.039 24.108C61.875 24.108 60.813 23.838 59.853 23.298C58.905 22.746 58.155 21.984 57.603 21.012C57.051 20.04 56.775 18.942 56.775 17.718ZM72.9293 15.738C73.2173 15.174 73.6253 14.736 74.1533 14.424C74.6933 14.112 75.3473 13.956 76.1153 13.956V15.648H75.6833C73.8473 15.648 72.9293 16.644 72.9293 18.636V24H71.2913V14.136H72.9293V15.738ZM87.0061 18.69C87.0061 19.002 86.9881 19.332 86.9521 19.68H79.0681C79.1281 20.652 79.4581 21.414 80.0581 21.966C80.6701 22.506 81.4081 22.776 82.2721 22.776C82.9801 22.776 83.5681 22.614 84.0361 22.29C84.5161 21.954 84.8521 21.51 85.0441 20.958H86.8081C86.5441 21.906 86.0161 22.68 85.2241 23.28C84.4321 23.868 83.4481 24.162 82.2721 24.162C81.3361 24.162 80.4961 23.952 79.7521 23.532C79.0201 23.112 78.4441 22.518 78.0241 21.75C77.6041 20.97 77.3941 20.07 77.3941 19.05C77.3941 18.03 77.5981 17.136 78.0061 16.368C78.4141 15.6 78.9841 15.012 79.7161 14.604C80.4601 14.184 81.3121 13.974 82.2721 13.974C83.2081 13.974 84.0361 14.178 84.7561 14.586C85.4761 14.994 86.0281 15.558 86.4121 16.278C86.8081 16.986 87.0061 17.79 87.0061 18.69ZM85.3141 18.348C85.3141 17.724 85.1761 17.19 84.9001 16.746C84.6241 16.29 84.2461 15.948 83.7661 15.72C83.2981 15.48 82.7761 15.36 82.2001 15.36C81.3721 15.36 80.6641 15.624 80.0761 16.152C79.5001 16.68 79.1701 17.412 79.0861 18.348H85.3141ZM88.5562 19.032C88.5562 18.024 88.7602 17.142 89.1682 16.386C89.5762 15.618 90.1342 15.024 90.8422 14.604C91.5622 14.184 92.3602 13.974 93.2362 13.974C94.1002 13.974 94.8502 14.16 95.4862 14.532C96.1222 14.904 96.5962 15.372 96.9082 15.936V14.136H98.5642V24H96.9082V22.164C96.5842 22.74 96.0982 23.22 95.4502 23.604C94.8142 23.976 94.0702 24.162 93.2182 24.162C92.3422 24.162 91.5502 23.946 90.8422 23.514C90.1342 23.082 89.5762 22.476 89.1682 21.696C88.7602 20.916 88.5562 20.028 88.5562 19.032ZM96.9082 19.05C96.9082 18.306 96.7582 17.658 96.4582 17.106C96.1582 16.554 95.7502 16.134 95.2342 15.846C94.7302 15.546 94.1722 15.396 93.5602 15.396C92.9482 15.396 92.3902 15.54 91.8862 15.828C91.3822 16.116 90.9802 16.536 90.6802 17.088C90.3802 17.64 90.2302 18.288 90.2302 19.032C90.2302 19.788 90.3802 20.448 90.6802 21.012C90.9802 21.564 91.3822 21.99 91.8862 22.29C92.3902 22.578 92.9482 22.722 93.5602 22.722C94.1722 22.722 94.7302 22.578 95.2342 22.29C95.7502 21.99 96.1582 21.564 96.4582 21.012C96.7582 20.448 96.9082 19.794 96.9082 19.05ZM103.33 15.486V21.3C103.33 21.78 103.432 22.122 103.636 22.326C103.84 22.518 104.194 22.614 104.698 22.614H105.904V24H104.428C103.516 24 102.832 23.79 102.376 23.37C101.92 22.95 101.692 22.26 101.692 21.3V15.486H100.414V14.136H101.692V11.652H103.33V14.136H105.904V15.486H103.33ZM108.735 12.534C108.423 12.534 108.159 12.426 107.943 12.21C107.727 11.994 107.619 11.73 107.619 11.418C107.619 11.106 107.727 10.842 107.943 10.626C108.159 10.41 108.423 10.302 108.735 10.302C109.035 10.302 109.287 10.41 109.491 10.626C109.707 10.842 109.815 11.106 109.815 11.418C109.815 11.73 109.707 11.994 109.491 12.21C109.287 12.426 109.035 12.534 108.735 12.534ZM109.527 14.136V24H107.889V14.136H109.527ZM115.991 22.488L119.051 14.136H120.797L116.927 24H115.019L111.149 14.136H112.913L115.991 22.488ZM131.408 18.69C131.408 19.002 131.39 19.332 131.354 19.68H123.47C123.53 20.652 123.86 21.414 124.46 21.966C125.072 22.506 125.81 22.776 126.674 22.776C127.382 22.776 127.97 22.614 128.438 22.29C128.918 21.954 129.254 21.51 129.446 20.958H131.21C130.946 21.906 130.418 22.68 129.626 23.28C128.834 23.868 127.85 24.162 126.674 24.162C125.738 24.162 124.898 23.952 124.154 23.532C123.422 23.112 122.846 22.518 122.426 21.75C122.006 20.97 121.796 20.07 121.796 19.05C121.796 18.03 122 17.136 122.408 16.368C122.816 15.6 123.386 15.012 124.118 14.604C124.862 14.184 125.714 13.974 126.674 13.974C127.61 13.974 128.438 14.178 129.158 14.586C129.878 14.994 130.43 15.558 130.814 16.278C131.21 16.986 131.408 17.79 131.408 18.69ZM129.716 18.348C129.716 17.724 129.578 17.19 129.302 16.746C129.026 16.29 128.648 15.948 128.168 15.72C127.7 15.48 127.178 15.36 126.602 15.36C125.774 15.36 125.066 15.624 124.478 16.152C123.902 16.68 123.572 17.412 123.488 18.348H129.716Z" fill="white"/>
<path d="M29.983 14.595C29.641 13.9363 29.166 13.4423 28.558 13.113C27.95 12.771 27.247 12.6 26.449 12.6C25.575 12.6 24.796 12.7963 24.112 13.189C23.428 13.5817 22.8896 14.139 22.497 14.861C22.117 15.583 21.927 16.419 21.927 17.369C21.927 18.319 22.117 19.1613 22.497 19.896C22.8896 20.618 23.428 21.1753 24.112 21.568C24.796 21.9607 25.575 22.157 26.449 22.157C27.627 22.157 28.5833 21.8277 29.318 21.169C30.0526 20.5103 30.5023 19.6173 30.667 18.49H25.708V16.761H32.985V18.452C32.8456 19.478 32.4783 20.4217 31.883 21.283C31.3003 22.1443 30.534 22.8347 29.584 23.354C28.6466 23.8607 27.6016 24.114 26.449 24.114C25.2076 24.114 24.074 23.829 23.048 23.259C22.022 22.6763 21.205 21.872 20.597 20.846C20.0016 19.82 19.704 18.661 19.704 17.369C19.704 16.077 20.0016 14.918 20.597 13.892C21.205 12.866 22.022 12.068 23.048 11.498C24.0866 10.9153 25.2203 10.624 26.449 10.624C27.855 10.624 29.1026 10.9723 30.192 11.669C31.294 12.353 32.092 13.3283 32.586 14.595H29.983Z" fill="url(#paint0_linear_1524_1902)"/>
<path d="M34.393 11.312L39.945 11.216C40.9583 11.1947 41.705 11.408 42.185 11.856C42.6756 12.2933 42.921 12.992 42.921 13.952V21.36C42.921 22.3307 42.6703 23.0347 42.169 23.472C41.6676 23.8987 40.905 24.1067 39.881 24.096L34.393 24V11.312ZM36.409 12.976V22.336H40.617C40.7876 22.336 40.873 22.2507 40.873 22.08V13.232C40.873 13.0613 40.7876 12.976 40.617 12.976H36.409Z" fill="url(#paint1_linear_1524_1902)"/>
<path d="M50.708 10.959C51.758 10.959 52.528 11.169 53.018 11.589C53.508 12.009 53.753 12.751 53.753 13.815V24H51.212V13.311C51.212 13.115 51.121 13.017 50.939 13.017H47.264C47.068 13.017 46.97 13.115 46.97 13.311L46.991 24H44.471L44.429 11.148H46.697L46.886 12.45C47.166 11.456 47.943 10.959 49.217 10.959H50.708Z" fill="url(#paint2_linear_1524_1902)"/>
<defs>
<linearGradient id="paint0_linear_1524_1902" x1="26.501" y1="3" x2="26.501" y2="32" gradientUnits="userSpaceOnUse">
<stop stop-color="#00F0FF"/>
<stop offset="1" stop-color="white"/>
</linearGradient>
<linearGradient id="paint1_linear_1524_1902" x1="39.001" y1="6" x2="39.001" y2="31" gradientUnits="userSpaceOnUse">
<stop stop-color="#00F0FF"/>
<stop offset="1" stop-color="white"/>
</linearGradient>
<linearGradient id="paint2_linear_1524_1902" x1="49.001" y1="0" x2="49.001" y2="32" gradientUnits="userSpaceOnUse">
<stop stop-color="#00F0FF"/>
<stop offset="1" stop-color="white"/>
</linearGradient>
</defs>
</svg>
