<svg width="12" height="12" viewBox="0 0 12 12" fill="none" xmlns="http://www.w3.org/2000/svg">
<path d="M7.5 10.5C7.5 10.5 7.5 9.365 7.5 9C7.5 8.685 7.575 8.02 7.25 7.75C7.945 7.685 8.49 7.46 9 7C9.51 6.54 9.75 5.845 9.75 4.75C9.75 4 9.625 3.5 9.25 3C9.395 2.61 9.42 2 9.25 1.5C8.47 1.5 7.765 2.035 7.5 2.25C7.305 2.2 6.835 2 6 2C5.165 2 4.695 2.2 4.5 2.25C4.235 2.035 3.53 1.5 2.75 1.5C2.58 2 2.605 2.61 2.75 3C2.375 3.5 2.25 4 2.25 4.75C2.25 5.845 2.49 6.54 3 7C3.51 7.46 4.055 7.685 4.75 7.75C4.425 8.02 4.5 8.685 4.5 9C4.5 9.365 4.5 10.5 4.5 10.5" stroke="white" stroke-width="1.2" stroke-linecap="round" stroke-linejoin="round"/>
<path d="M4.5 9.5C3.795 9.5 3.08 9.22 2.655 8.905C2.235 8.59 2.11 8.075 1.5 7.75" stroke="white" stroke-width="1.2" stroke-linecap="round" stroke-linejoin="round"/>
</svg>
