<svg width="70" height="48" viewBox="0 0 70 48" fill="none" xmlns="http://www.w3.org/2000/svg">
<path d="M59.3809 8.48462C59.5827 9.71166 58.9018 9.87399 58.2977 10.3924C52.9654 14.9672 43.6681 19.0707 37.5739 22.9211C33.3234 25.6056 29.1004 28.3774 25.0434 31.5122C25.41 32.4111 26.1775 31.3411 26.6085 31.109C32.1015 28.1487 37.5011 24.0016 43.0709 20.9383C45.3747 19.6711 51.4717 15.99 53.5187 15.6706C54.5854 15.5048 54.2477 16.3373 54.142 17.3741L29.747 31.8141C29.6509 32.9399 30.7025 32.3098 31.1624 32.1196C35.1109 30.4806 38.8932 27.8153 42.7991 25.9774C45.2937 24.8045 50.1523 22.1078 52.5494 22.216C53.2592 22.2474 53.9292 21.8128 53.7315 23.1271C46.5059 30.3899 37.2636 33.9855 29.4271 40.0805L28.3343 40.1765L28.3727 38.4416L41.0432 30.9222L48.789 25.2181C39.1431 28.1784 29.5287 36.2563 19.9569 38.857C18.989 39.1205 18.0884 38.5637 17.1342 38.7907C15.8958 39.0856 10.764 42.964 9.98828 41.9708L10.2986 40.1503C18.3176 34.4689 26.2502 28.4227 34.4272 23.1061C41.3727 18.5907 50.2018 12.8011 57.3257 9.15661C58.0094 8.80752 58.5599 8.27342 59.3796 8.48287L59.3809 8.48462Z" fill="white"/>
</svg>
