<svg width="12" height="12" viewBox="0 0 12 12" fill="none" xmlns="http://www.w3.org/2000/svg">
<path d="M2.18302 4.17624L9.92152 2.00924C9.96427 1.99729 10.0094 1.99692 10.0524 2.00819C10.0953 2.01946 10.1344 2.04196 10.1658 2.07337C10.1972 2.10478 10.2196 2.14397 10.2308 2.18692C10.242 2.22986 10.2416 2.27502 10.2295 2.31774L8.06302 10.0557C8.04925 10.1055 8.0204 10.1498 7.98044 10.1825C7.94048 10.2152 7.89137 10.2348 7.83985 10.2384C7.78834 10.2421 7.73695 10.2297 7.69275 10.203C7.64856 10.1763 7.61372 10.1366 7.59302 10.0892L5.96902 6.39824C5.94395 6.3409 5.89827 6.29504 5.84102 6.26974L2.15002 4.64574C2.1027 4.62509 2.06292 4.5903 2.03617 4.54613C2.00942 4.50197 1.997 4.4506 2.00061 4.3991C2.00423 4.34759 2.02371 4.29846 2.05637 4.25847C2.08903 4.21848 2.13328 4.19008 2.18302 4.17624Z" stroke="white" stroke-linecap="round" stroke-linejoin="round"/>
</svg>
