<svg width="41" height="41" viewBox="0 0 41 41" fill="none" xmlns="http://www.w3.org/2000/svg">
<g clip-path="url(#clip0_1200_1934)">
<path d="M41.5 -0.5V12.2139H-0.5V-0.5H41.5ZM2.45215 9.26172H38.5479V2.45215H2.45215V9.26172Z" fill="#333333" stroke="#333333"/>
<path d="M2.45215 14.1429V38.5471H38.5479V14.1429H41.5V41.5003H-0.5V14.1429H2.45215Z" fill="#333333" stroke="#333333"/>
<path d="M20.0235 14.1429V36.6194H4.38095V14.1429H20.0235ZM7.3331 33.6663H17.0714V17.095H7.3331V33.6663Z" fill="#333333" stroke="#333333"/>
<path d="M36.6194 14.1429V17.095H21.9524V14.1429H36.6194Z" fill="#333333" stroke="#333333"/>
<path d="M36.6194 19.0238V21.976H21.9524V19.0238H36.6194Z" fill="#333333" stroke="#333333"/>
<path d="M36.6194 23.9048V26.8569H21.9524V23.9048H36.6194Z" fill="#333333" stroke="#333333"/>
<path d="M36.6194 28.7857V31.7379H21.9524V28.7857H36.6194Z" fill="#333333" stroke="#333333"/>
<path d="M36.6194 33.6667V36.6188H21.9524V33.6667H36.6194Z" fill="#333333" stroke="#333333"/>
</g>
<defs>
<clipPath id="clip0_1200_1934">
<rect width="41" height="41" fill="white"/>
</clipPath>
</defs>
</svg>
