<svg width="30" height="30" viewBox="0 0 30 30" fill="none" xmlns="http://www.w3.org/2000/svg">
<path d="M27.5 15C27.5 21.9037 21.9037 27.5 15 27.5C12.8057 27.503 10.6495 26.926 8.75 25.8275L2.5 26.875L3.54 20C2.85293 18.4227 2.49888 16.7205 2.5 15C2.5 8.09625 8.09625 2.5 15 2.5C21.9037 2.5 27.5 8.09625 27.5 15Z" stroke="white" stroke-width="2.6" stroke-linecap="round" stroke-linejoin="round"/>
<path d="M16.2 17.335L18.8 16.8275L21.25 17.7688V20.0475C21.25 20.8063 20.5975 21.385 19.8625 21.2225C17.9588 20.805 14.5 19.755 12.0975 17.335C9.81 15.0312 9.02875 11.8225 8.7625 10.0513C8.65625 9.3425 9.2175 8.75 9.92875 8.75H12.2962L13.215 11.2112L12.7287 13.8375" stroke="white" stroke-width="2.6" stroke-linecap="round" stroke-linejoin="round"/>
</svg>
