<svg width="24" height="24" viewBox="0 0 24 24" fill="none" xmlns="http://www.w3.org/2000/svg">
<g clip-path="url(#clip0_1060_560)">
<path d="M4.03096 4.91694L19.508 0.582941C19.5934 0.559025 19.6838 0.5583 19.7696 0.580838C19.8555 0.603377 19.9338 0.648367 19.9965 0.711186C20.0592 0.774006 20.1041 0.852391 20.1265 0.938287C20.1489 1.02418 20.148 1.11449 20.124 1.19994L15.791 16.6759C15.7634 16.7755 15.7057 16.8641 15.6258 16.9295C15.5459 16.9949 15.4476 17.034 15.3446 17.0413C15.2416 17.0487 15.1388 17.0239 15.0504 16.9705C14.962 16.9171 14.8923 16.8376 14.851 16.7429L11.603 9.36094C11.5528 9.24625 11.4615 9.15454 11.347 9.10394L3.96496 5.85594C3.87031 5.81464 3.79077 5.74505 3.73726 5.65672C3.68375 5.56839 3.65891 5.46566 3.66615 5.36264C3.67338 5.25963 3.71233 5.16137 3.77766 5.08139C3.84298 5.0014 3.93147 4.94461 4.03096 4.91694Z" stroke="white" stroke-width="2" stroke-linecap="round" stroke-linejoin="round"/>
</g>
<defs>
<clipPath id="clip0_1060_560">
<rect width="24" height="24" fill="white"/>
</clipPath>
</defs>
</svg>
