<svg width="12" height="12" viewBox="0 0 12 12" fill="none" xmlns="http://www.w3.org/2000/svg">
<g clip-path="url(#clip0_1541_1835)">
<path d="M11 6C11.0008 6.65858 10.8711 7.31079 10.6184 7.91895C10.3657 8.52712 9.99504 9.07918 9.52775 9.54325C9.06425 10.0059 8.51412 10.3727 7.90882 10.6226C7.30351 10.8726 6.65489 11.0008 6 11C3.2385 11 1 8.7615 1 6C0.998205 4.71794 1.49068 3.48451 2.375 2.55625C2.84156 2.06387 3.4037 1.67188 4.02701 1.40429C4.65032 1.1367 5.32168 0.999127 6 1C6.65489 0.999197 7.30351 1.12743 7.90882 1.37739C8.51412 1.62734 9.06425 1.99412 9.52775 2.45675C9.99504 2.92083 10.3657 3.47289 10.6184 4.08106C10.8711 4.68922 11.0008 5.34143 11 6Z" stroke="#007B83" stroke-width="1.2" stroke-linecap="round" stroke-linejoin="round"/>
<path d="M10.9991 5.99989C10.2696 5.99989 8.25709 5.72489 6.45584 6.51564C4.49909 7.37489 3.08234 8.70789 2.46484 9.53664" stroke="#007B83" stroke-width="1.2" stroke-linecap="round" stroke-linejoin="round"/>
<path d="M4.125 1.36353C4.9075 2.08578 6.615 3.92453 7.25 5.75003C7.885 7.57553 8.12 9.82003 8.265 10.4588" stroke="#007B83" stroke-width="1.2" stroke-linecap="round" stroke-linejoin="round"/>
<path d="M1.03906 5.37493C1.98356 5.43193 4.48381 5.48318 6.08381 4.79993C7.68381 4.11668 9.06056 2.85993 9.53281 2.46118M1.37556 7.90318C1.81621 8.96961 2.61079 9.85168 3.62556 10.4009" stroke="#007B83" stroke-width="1.2" stroke-linecap="round" stroke-linejoin="round"/>
<path d="M1 6C0.998205 4.71794 1.49068 3.48451 2.375 2.55625C2.84156 2.06387 3.4037 1.67188 4.02701 1.40429C4.65032 1.1367 5.32168 0.999127 6 1M8 1.416C8.56952 1.66495 9.08762 2.0179 9.52775 2.45675C9.99504 2.92083 10.3657 3.47289 10.6184 4.08106C10.8711 4.68922 11.0008 5.34143 11 6C11 6.6155 10.8888 7.20525 10.685 7.75M6 11C6.65489 11.0008 7.30351 10.8726 7.90882 10.6226C8.51412 10.3727 9.06425 10.0059 9.52775 9.54325" stroke="#007B83" stroke-width="1.2" stroke-linecap="round" stroke-linejoin="round"/>
</g>
<defs>
<clipPath id="clip0_1541_1835">
<rect width="12" height="12" fill="white"/>
</clipPath>
</defs>
</svg>
