<svg width="41" height="41" viewBox="0 0 41 41" fill="none" xmlns="http://www.w3.org/2000/svg">
<g clip-path="url(#clip0_1200_1973)">
<path d="M41 11.7139H0V0H41V11.7139ZM1.95215 9.76172H39.0479V1.95215H1.95215V9.76172Z" fill="white"/>
<path d="M41 11.7139H0V0H41V11.7139ZM1.95215 9.76172H39.0479V1.95215H1.95215V9.76172Z" stroke="white"/>
<path d="M1.95215 39.0471H39.0479V14.6429H41V41.0003H0V14.6429H1.95215V39.0471Z" fill="white"/>
<path d="M1.95215 39.0471H39.0479V14.6429H41V41.0003H0V14.6429H1.95215V39.0471Z" stroke="white"/>
<path d="M19.5235 36.1194H4.88095V14.6429H19.5235V36.1194ZM6.8331 34.1663H17.5714V16.595H6.8331V34.1663Z" fill="white"/>
<path d="M19.5235 36.1194H4.88095V14.6429H19.5235V36.1194ZM6.8331 34.1663H17.5714V16.595H6.8331V34.1663Z" stroke="white"/>
<path d="M36.1194 14.6429V16.595H22.4524V14.6429H36.1194Z" fill="white"/>
<path d="M36.1194 14.6429V16.595H22.4524V14.6429H36.1194Z" stroke="white"/>
<path d="M36.1194 19.5238V21.476H22.4524V19.5238H36.1194Z" fill="white"/>
<path d="M36.1194 19.5238V21.476H22.4524V19.5238H36.1194Z" stroke="white"/>
<path d="M36.1194 24.4048V26.3569H22.4524V24.4048H36.1194Z" fill="white"/>
<path d="M36.1194 24.4048V26.3569H22.4524V24.4048H36.1194Z" stroke="white"/>
<path d="M36.1194 29.2857V31.2379H22.4524V29.2857H36.1194Z" fill="white"/>
<path d="M36.1194 29.2857V31.2379H22.4524V29.2857H36.1194Z" stroke="white"/>
<path d="M36.1194 34.1667V36.1188H22.4524V34.1667H36.1194Z" fill="white"/>
<path d="M36.1194 34.1667V36.1188H22.4524V34.1667H36.1194Z" stroke="white"/>
</g>
<defs>
<clipPath id="clip0_1200_1973">
<rect width="41" height="41" fill="white"/>
</clipPath>
</defs>
</svg>
