<svg width="19" height="19" viewBox="0 0 19 19" fill="none" xmlns="http://www.w3.org/2000/svg">
<g clip-path="url(#clip0_1524_1918)">
<path d="M18.7539 -0.0996094V5.42969H-0.0996094V-0.0996094H18.7539ZM0.988281 4.3418H17.666V0.988281H0.988281V4.3418Z" fill="#333333" stroke="#333333" stroke-width="0.2"/>
<path d="M0.988281 6.56253V17.666H17.666V6.56253H18.7539V18.7539H-0.0996094V6.56253H0.988281Z" fill="#333333" stroke="#333333" stroke-width="0.2"/>
<path d="M8.98438 6.5625V16.5332H2.12305V6.5625H8.98438ZM3.21094 15.4453H7.89648V7.65039H3.21094V15.4453Z" fill="#333333" stroke="#333333" stroke-width="0.2"/>
<path d="M16.5332 6.5625V7.65039H10.1152V6.5625H16.5332Z" fill="#333333" stroke="#333333" stroke-width="0.2"/>
<path d="M16.5332 8.7832V9.87109H10.1152V8.7832H16.5332Z" fill="#333333" stroke="#333333" stroke-width="0.2"/>
<path d="M16.5332 11.004V12.0919H10.1152V11.004H16.5332Z" fill="#333333" stroke="#333333" stroke-width="0.2"/>
<path d="M16.5332 13.2247V14.3126H10.1152V13.2247H16.5332Z" fill="#333333" stroke="#333333" stroke-width="0.2"/>
<path d="M16.5332 15.4454V16.5333H10.1152V15.4454H16.5332Z" fill="#333333" stroke="#333333" stroke-width="0.2"/>
</g>
<defs>
<clipPath id="clip0_1524_1918">
<rect width="18.654" height="18.654" fill="white"/>
</clipPath>
</defs>
</svg>
