<svg width="30" height="30" viewBox="0 0 30 30" fill="none" xmlns="http://www.w3.org/2000/svg">
<path d="M18.75 26.25C18.75 26.25 18.75 23.4125 18.75 22.5C18.75 21.7125 18.9375 20.05 18.125 19.375C19.8625 19.2125 21.225 18.65 22.5 17.5C23.775 16.35 24.375 14.6125 24.375 11.875C24.375 10 24.0625 8.75 23.125 7.5C23.4875 6.525 23.55 5 23.125 3.75C21.175 3.75 19.4125 5.0875 18.75 5.625C18.2625 5.5 17.0875 5 15 5C12.9125 5 11.7375 5.5 11.25 5.625C10.5875 5.0875 8.825 3.75 6.875 3.75C6.45 5 6.5125 6.525 6.875 7.5C5.9375 8.75 5.625 10 5.625 11.875C5.625 14.6125 6.225 16.35 7.5 17.5C8.775 18.65 10.1375 19.2125 11.875 19.375C11.0625 20.05 11.25 21.7125 11.25 22.5C11.25 23.4125 11.25 26.25 11.25 26.25" stroke="#333333" stroke-width="2" stroke-linecap="round" stroke-linejoin="round"/>
<path d="M11.25 23.75C9.4875 23.75 7.7 23.05 6.6375 22.2625C5.5875 21.475 5.275 20.1875 3.75 19.375" stroke="#333333" stroke-width="2" stroke-linecap="round" stroke-linejoin="round"/>
</svg>
