<svg width="24" height="24" viewBox="0 0 24 24" fill="none" xmlns="http://www.w3.org/2000/svg">
<path d="M12 2C12.2652 2 12.5196 2.10536 12.7071 2.29289C12.8946 2.48043 13 2.73478 13 3V4C13 4.26522 12.8946 4.51957 12.7071 4.70711C12.5196 4.89464 12.2652 5 12 5C11.7348 5 11.4804 4.89464 11.2929 4.70711C11.1054 4.51957 11 4.26522 11 4V3C11 2.73478 11.1054 2.48043 11.2929 2.29289C11.4804 2.10536 11.7348 2 12 2ZM19.071 4.929C19.2585 5.11653 19.3638 5.37084 19.3638 5.636C19.3638 5.90116 19.2585 6.15547 19.071 6.343L18.364 7.05C18.2718 7.14551 18.1614 7.22169 18.0394 7.2741C17.9174 7.32651 17.7862 7.3541 17.6534 7.35525C17.5206 7.3564 17.3889 7.3311 17.266 7.28082C17.1432 7.23054 17.0315 7.15629 16.9376 7.0624C16.8437 6.9685 16.7695 6.85685 16.7192 6.73395C16.6689 6.61106 16.6436 6.47938 16.6447 6.3466C16.6459 6.21382 16.6735 6.0826 16.7259 5.9606C16.7783 5.83859 16.8545 5.72825 16.95 5.636L17.657 4.929C17.8445 4.74153 18.0988 4.63621 18.364 4.63621C18.6292 4.63621 18.8835 4.74153 19.071 4.929ZM4.929 4.929C5.11653 4.74153 5.37084 4.63621 5.636 4.63621C5.90116 4.63621 6.15547 4.74153 6.343 4.929L7.05 5.636C7.23216 5.8246 7.33295 6.0772 7.33067 6.3394C7.3284 6.6016 7.22323 6.85241 7.03782 7.03782C6.85241 7.22323 6.6016 7.3284 6.3394 7.33067C6.0772 7.33295 5.8246 7.23216 5.636 7.05L4.929 6.343C4.74153 6.15547 4.63621 5.90116 4.63621 5.636C4.63621 5.37084 4.74153 5.11653 4.929 4.929ZM12 8C10.9391 8 9.92172 8.42143 9.17157 9.17157C8.42143 9.92172 8 10.9391 8 12C8 13.0609 8.42143 14.0783 9.17157 14.8284C9.92172 15.5786 10.9391 16 12 16C13.0609 16 14.0783 15.5786 14.8284 14.8284C15.5786 14.0783 16 13.0609 16 12C16 10.9391 15.5786 9.92172 14.8284 9.17157C14.0783 8.42143 13.0609 8 12 8ZM6 12C6 10.4087 6.63214 8.88258 7.75736 7.75736C8.88258 6.63214 10.4087 6 12 6C13.5913 6 15.1174 6.63214 16.2426 7.75736C17.3679 8.88258 18 10.4087 18 12C18 13.5913 17.3679 15.1174 16.2426 16.2426C15.1174 17.3679 13.5913 18 12 18C10.4087 18 8.88258 17.3679 7.75736 16.2426C6.63214 15.1174 6 13.5913 6 12ZM2 12C2 11.7348 2.10536 11.4804 2.29289 11.2929C2.48043 11.1054 2.73478 11 3 11H4C4.26522 11 4.51957 11.1054 4.70711 11.2929C4.89464 11.4804 5 11.7348 5 12C5 12.2652 4.89464 12.5196 4.70711 12.7071C4.51957 12.8946 4.26522 13 4 13H3C2.73478 13 2.48043 12.8946 2.29289 12.7071C2.10536 12.5196 2 12.2652 2 12ZM19 12C19 11.7348 19.1054 11.4804 19.2929 11.2929C19.4804 11.1054 19.7348 11 20 11H21C21.2652 11 21.5196 11.1054 21.7071 11.2929C21.8946 11.4804 22 11.7348 22 12C22 12.2652 21.8946 12.5196 21.7071 12.7071C21.5196 12.8946 21.2652 13 21 13H20C19.7348 13 19.4804 12.8946 19.2929 12.7071C19.1054 12.5196 19 12.2652 19 12ZM5.636 16.95C5.8246 16.7678 6.0772 16.667 6.3394 16.6693C6.6016 16.6716 6.85241 16.7768 7.03782 16.9622C7.22323 17.1476 7.3284 17.3984 7.33067 17.6606C7.33295 17.9228 7.23216 18.1754 7.05 18.364L6.343 19.071C6.1544 19.2532 5.9018 19.354 5.6396 19.3517C5.3774 19.3494 5.12659 19.2442 4.94118 19.0588C4.75577 18.8734 4.6506 18.6226 4.64833 18.3604C4.64605 18.0982 4.74684 17.8456 4.929 17.657L5.636 16.95ZM16.95 18.364C16.7678 18.1754 16.667 17.9228 16.6693 17.6606C16.6716 17.3984 16.7768 17.1476 16.9622 16.9622C17.1476 16.7768 17.3984 16.6716 17.6606 16.6693C17.9228 16.667 18.1754 16.7678 18.364 16.95L19.071 17.657C19.2532 17.8456 19.354 18.0982 19.3517 18.3604C19.3494 18.6226 19.2442 18.8734 19.0588 19.0588C18.8734 19.2442 18.6226 19.3494 18.3604 19.3517C18.0982 19.354 17.8456 19.2532 17.657 19.071L16.95 18.364ZM12 19C12.2652 19 12.5196 19.1054 12.7071 19.2929C12.8946 19.4804 13 19.7348 13 20V21C13 21.2652 12.8946 21.5196 12.7071 21.7071C12.5196 21.8946 12.2652 22 12 22C11.7348 22 11.4804 21.8946 11.2929 21.7071C11.1054 21.5196 11 21.2652 11 21V20C11 19.7348 11.1054 19.4804 11.2929 19.2929C11.4804 19.1054 11.7348 19 12 19Z" fill="white"/>
</svg>
