<svg width="21" height="21" viewBox="0 0 21 21" fill="none" xmlns="http://www.w3.org/2000/svg">
<path d="M10.5 2.625H10.8439C9.71979 3.66949 8.99726 5.07486 8.80187 6.59681C8.60648 8.11877 8.95059 9.66107 9.77439 10.9556C10.5982 12.2502 11.8496 13.2152 13.311 13.6828C14.7725 14.1504 16.3516 14.0911 17.7739 13.5152C17.2268 14.8317 16.3326 15.9749 15.1867 16.823C14.0408 17.671 12.6861 18.1922 11.2673 18.3307C9.84844 18.4693 8.4186 18.2201 7.13027 17.6097C5.84194 16.9994 4.74347 16.0507 3.95201 14.865C3.16055 13.6793 2.7058 12.301 2.63627 10.8771C2.56673 9.4532 2.88503 8.03713 3.55719 6.77995C4.22936 5.52276 5.23018 4.47162 6.45291 3.73864C7.67564 3.00566 9.0744 2.61834 10.5 2.618V2.625Z" stroke="#333333" stroke-width="2" stroke-linecap="round" stroke-linejoin="round"/>
</svg>
