<svg width="17" height="17" viewBox="0 0 17 17" fill="none" xmlns="http://www.w3.org/2000/svg">
<g clip-path="url(#clip0_1525_1966)">
<path d="M4.9987 6.75004V12.5834M11.9987 12.5834V9.66671C11.9987 9.04787 11.7529 8.45438 11.3153 8.01679C10.8777 7.57921 10.2842 7.33337 9.66537 7.33337C9.04653 7.33337 8.45303 7.57921 8.01545 8.01679C7.57786 8.45438 7.33203 9.04787 7.33203 9.66671V12.5834V6.75004M4.41536 5.00004H5.58203M1.4987 0.333374H15.4987C15.8081 0.333374 16.1049 0.45629 16.3237 0.675083C16.5424 0.893875 16.6654 1.19062 16.6654 1.50004V15.5C16.6654 15.8095 16.5424 16.1062 16.3237 16.325C16.1049 16.5438 15.8081 16.6667 15.4987 16.6667H1.4987C1.18928 16.6667 0.892532 16.5438 0.67374 16.325C0.454948 16.1062 0.332031 15.8095 0.332031 15.5V1.50004C0.332031 1.19062 0.454948 0.893875 0.67374 0.675083C0.892532 0.45629 1.18928 0.333374 1.4987 0.333374Z" stroke="black" stroke-width="1.5"/>
</g>
<defs>
<clipPath id="clip0_1525_1966">
<rect width="17" height="17" fill="white"/>
</clipPath>
</defs>
</svg>
