<svg width="30" height="30" viewBox="0 0 30 30" fill="none" xmlns="http://www.w3.org/2000/svg">
<path d="M10 23.75H6.25V11.25H10V23.75ZM23.75 23.75H20V17.0725C20 15.3325 19.38 14.4662 18.1512 14.4662C17.1775 14.4662 16.56 14.9512 16.25 15.9225V23.75H12.5C12.5 23.75 12.55 12.5 12.5 11.25H15.46L15.6887 13.75H15.7662C16.535 12.5 17.7638 11.6525 19.4487 11.6525C20.73 11.6525 21.7662 12.0087 22.5575 12.9037C23.3538 13.8 23.75 15.0025 23.75 16.6912V23.75Z" fill="white"/>
<path d="M8.125 10C9.19505 10 10.0625 9.16053 10.0625 8.125C10.0625 7.08947 9.19505 6.25 8.125 6.25C7.05495 6.25 6.1875 7.08947 6.1875 8.125C6.1875 9.16053 7.05495 10 8.125 10Z" fill="white"/>
</svg>
