<svg width="49" height="49" viewBox="0 0 49 49" fill="none" xmlns="http://www.w3.org/2000/svg">
<path d="M46.4736 3.73242L46.7793 4.03906L47.0859 4.34473V44.7129L46.5879 45.2871H2.46875L2.2207 45.0381L1.97168 44.7891L1.93359 24.5762L1.91406 4.36426L2.2207 4.03906L2.52637 3.73242H46.4736ZM3.71289 12.8242L3.73242 28.1367L3.77051 43.4492L24.5381 43.4873L45.2871 43.5068V12.8242H3.71289ZM3.71289 5.53125V10.9297H45.2871V5.53125H3.71289Z" fill="white"/>
<path d="M46.4736 3.73242L46.7793 4.03906L47.0859 4.34473V44.7129L46.5879 45.2871H2.46875L2.2207 45.0381L1.97168 44.7891L1.93359 24.5762L1.91406 4.36426L2.2207 4.03906L2.52637 3.73242H46.4736ZM3.71289 12.8242L3.73242 28.1367L3.77051 43.4492L24.5381 43.4873L45.2871 43.5068V12.8242H3.71289ZM3.71289 5.53125V10.9297H45.2871V5.53125H3.71289Z" stroke="white"/>
<path d="M6.02975 7.50284C6.37388 7.31173 6.50793 7.31177 6.81393 7.46475C7.15847 7.65616 7.29284 7.88604 7.31198 8.28799C7.33103 9.30236 5.87603 9.47449 5.56979 8.51749C5.45507 8.19209 5.70441 7.67508 6.02975 7.50284Z" fill="white"/>
<path d="M6.02975 7.50284C6.37388 7.31173 6.50793 7.31177 6.81393 7.46475C7.15847 7.65616 7.29284 7.88604 7.31198 8.28799C7.33103 9.30236 5.87603 9.47449 5.56979 8.51749C5.45507 8.19209 5.70441 7.67508 6.02975 7.50284Z" stroke="white"/>
<path d="M9.62772 7.50357C9.99139 7.31217 10.1062 7.31178 10.489 7.48404C11.2929 7.90511 10.9485 9.13037 10.0681 9.13052C9.66619 9.13052 9.32127 8.86197 9.18729 8.47916C9.07267 8.19207 9.32163 7.67591 9.62772 7.50357Z" fill="white"/>
<path d="M9.62772 7.50357C9.99139 7.31217 10.1062 7.31178 10.489 7.48404C11.2929 7.90511 10.9485 9.13037 10.0681 9.13052C9.66619 9.13052 9.32127 8.86197 9.18729 8.47916C9.07267 8.19207 9.32163 7.67591 9.62772 7.50357Z" stroke="white"/>
<path d="M13.2837 7.4646C13.5707 7.31156 13.7244 7.3119 14.0688 7.48413C14.6426 7.77143 14.7193 8.59457 14.2026 8.97729C13.9155 9.20698 13.3221 9.16811 13.0542 8.90015C12.6331 8.49819 12.7477 7.75171 13.2837 7.4646Z" fill="white"/>
<path d="M13.2837 7.4646C13.5707 7.31156 13.7244 7.3119 14.0688 7.48413C14.6426 7.77143 14.7193 8.59457 14.2026 8.97729C13.9155 9.20698 13.3221 9.16811 13.0542 8.90015C12.6331 8.49819 12.7477 7.75171 13.2837 7.4646Z" stroke="white"/>
<path d="M24.8254 22.0689C25.1316 21.7819 25.5723 21.7625 25.8976 22.0113C26.4144 22.3749 26.3945 22.4521 25.3801 26.5289C24.5572 29.8396 24.3851 30.395 24.1555 30.5865C23.6004 31.065 22.7199 30.7015 22.7199 29.9742C22.72 29.7825 23.1412 27.9642 23.6389 25.9547C24.4427 22.8157 24.5957 22.2795 24.8254 22.0689Z" fill="white"/>
<path d="M24.8254 22.0689C25.1316 21.7819 25.5723 21.7625 25.8976 22.0113C26.4144 22.3749 26.3945 22.4521 25.3801 26.5289C24.5572 29.8396 24.3851 30.395 24.1555 30.5865C23.6004 31.065 22.7199 30.7015 22.7199 29.9742C22.72 29.7825 23.1412 27.9642 23.6389 25.9547C24.4427 22.8157 24.5957 22.2795 24.8254 22.0689Z" stroke="white"/>
<path d="M19.7912 22.8922C20.1932 22.9113 20.4422 23.0457 20.6144 23.3902C20.863 23.8685 20.7482 24.0791 19.6769 25.1695C19.1027 25.7629 18.6242 26.2801 18.6242 26.3375C18.6242 26.3949 19.1027 26.9312 19.6769 27.5055C20.7674 28.615 20.863 28.8065 20.6144 29.2848C20.4422 29.6293 20.2123 29.7637 19.7912 29.7828C19.4659 29.7828 19.2739 29.6489 17.9152 28.2711C16.4797 26.8355 16.4035 26.7203 16.4035 26.3375C16.4035 25.9355 16.4797 25.8394 17.9152 24.4039C19.2931 23.0261 19.4659 22.8922 19.7912 22.8922Z" fill="white"/>
<path d="M19.7912 22.8922C20.1932 22.9113 20.4422 23.0457 20.6144 23.3902C20.863 23.8685 20.7482 24.0791 19.6769 25.1695C19.1027 25.7629 18.6242 26.2801 18.6242 26.3375C18.6242 26.3949 19.1027 26.9312 19.6769 27.5055C20.7674 28.615 20.863 28.8065 20.6144 29.2848C20.4422 29.6293 20.2123 29.7637 19.7912 29.7828C19.4659 29.7828 19.2739 29.6489 17.9152 28.2711C16.4797 26.8355 16.4035 26.7203 16.4035 26.3375C16.4035 25.9355 16.4797 25.8394 17.9152 24.4039C19.2931 23.0261 19.4659 22.8922 19.7912 22.8922Z" stroke="white"/>
<path d="M29.1899 22.8922C29.5341 22.8923 29.7071 23.0266 31.0845 24.4039C32.52 25.8394 32.5962 25.9547 32.5962 26.3375C32.5962 26.7394 32.52 26.8355 31.0845 28.2711C29.7071 29.6484 29.5341 29.7827 29.1899 29.7828C28.9029 29.7828 28.7491 29.7064 28.5386 29.4576C28.0601 28.9025 28.1563 28.7105 29.3813 27.4664L30.4722 26.3375L29.3813 25.2086C28.1563 23.9644 28.0601 23.7725 28.5386 23.2174C28.7491 22.9686 28.8837 22.8922 29.1899 22.8922Z" fill="white"/>
<path d="M29.1899 22.8922C29.5341 22.8923 29.7071 23.0266 31.0845 24.4039C32.52 25.8394 32.5962 25.9547 32.5962 26.3375C32.5962 26.7394 32.52 26.8355 31.0845 28.2711C29.7071 29.6484 29.5341 29.7827 29.1899 29.7828C28.9029 29.7828 28.7491 29.7064 28.5386 29.4576C28.0601 28.9025 28.1563 28.7105 29.3813 27.4664L30.4722 26.3375L29.3813 25.2086C28.1563 23.9644 28.0601 23.7725 28.5386 23.2174C28.7491 22.9686 28.8837 22.8922 29.1899 22.8922Z" stroke="white"/>
</svg>
