<svg width="49" height="49" viewBox="0 0 49 49" fill="none" xmlns="http://www.w3.org/2000/svg">
<path d="M4.23242 28.1357L4.26855 42.9492L24.5391 42.9873L44.7871 43.0059V13.3242H4.21387L4.23242 28.1357ZM4.21289 10.4297H44.7871V6.03125H4.21289V10.4297ZM47.5859 44.8994L47.4639 45.04L46.9658 45.6143L46.8164 45.7871H2.26172L2.11523 45.6406L1.86719 45.3916L1.47168 44.9961V44.79L1.43359 24.5771L1.41406 4.36426V4.16602L1.5498 4.02148L1.85645 3.69629L1.86133 3.69043L1.86719 3.68555L2.17285 3.37891L2.31934 3.23242H46.6807L46.8271 3.37891L47.1328 3.68555L47.4395 3.99121L47.5859 4.1377V44.8994Z" fill="#333333" stroke="#333333"/>
<path d="M6.4155 6.85538C6.60107 6.8477 6.76321 6.89512 6.90378 6.95499L7.03757 7.01749L7.04733 7.02237L7.0571 7.02823C7.27994 7.15208 7.4766 7.31145 7.61374 7.53995C7.71556 7.70964 7.769 7.89144 7.7944 8.07706L7.811 8.26456L7.81198 8.27139V8.27823C7.82724 9.08696 7.23016 9.56246 6.62546 9.63858C6.03313 9.71306 5.34202 9.41958 5.09909 8.6835C5.0984 8.68156 5.09781 8.67959 5.09714 8.67764C5.09628 8.675 5.09408 8.67248 5.09323 8.66983L5.09421 8.66885C4.98392 8.3393 5.06573 7.99256 5.18112 7.74307C5.30004 7.48602 5.50582 7.21938 5.78659 7.06729V7.06631C5.78785 7.06561 5.78923 7.06506 5.7905 7.06436C5.79217 7.06347 5.7937 7.06232 5.79538 7.06143V7.06241C5.97585 6.96264 6.17989 6.86519 6.4155 6.85538Z" fill="#333333" stroke="#333333"/>
<path d="M10.0418 6.85709C10.2261 6.85354 10.394 6.90336 10.5467 6.96451L10.6941 7.02798L10.7078 7.03384L10.7215 7.04068C11.3643 7.37749 11.5386 8.04818 11.3933 8.59341C11.2498 9.13183 10.7731 9.63045 10.0681 9.63052C9.43251 9.63052 8.91251 9.20677 8.71561 8.6442L8.71756 8.64322C8.59668 8.31666 8.6897 7.96866 8.79568 7.73892C8.91064 7.48986 9.11046 7.22013 9.3826 7.06705L9.39432 7.06021L9.61697 7.48404L9.62772 7.50357L9.39529 7.06021C9.58044 6.96279 9.79203 6.86198 10.0418 6.85709Z" fill="#333333" stroke="#333333"/>
<path d="M13.6645 6.85229C13.8969 6.85704 14.1037 6.94301 14.2915 7.03687C15.1895 7.48585 15.3176 8.75382 14.5141 9.36597L14.5151 9.36694C14.512 9.36946 14.5075 9.37131 14.5044 9.37378C14.5026 9.37508 14.5012 9.37737 14.4995 9.37866L14.4985 9.37769C14.2265 9.58708 13.8756 9.64267 13.5883 9.62378C13.297 9.60457 12.9555 9.50149 12.7094 9.2605L12.7085 9.26245C12.0238 8.60892 12.2332 7.46042 13.0473 7.02417L13.0483 7.02319C13.2198 6.93174 13.4207 6.84735 13.6645 6.85229Z" fill="#333333" stroke="#333333"/>
<path d="M24.4875 21.7017C24.9668 21.2554 25.6675 21.2191 26.1848 21.6031C26.3066 21.6888 26.515 21.8307 26.633 22.0923C26.746 22.343 26.7461 22.6282 26.7101 22.9361C26.6383 23.5515 26.3669 24.6345 25.8654 26.65C25.4549 28.3016 25.2027 29.2815 25.0236 29.8726C24.9345 30.1669 24.8575 30.3861 24.7805 30.5504C24.7011 30.7193 24.6089 30.8603 24.4758 30.9713L24.4748 30.9703C23.6324 31.6875 22.2199 31.1752 22.2199 29.9742C22.2199 29.8994 22.2354 29.8063 22.2463 29.7437C22.2601 29.6642 22.2798 29.5635 22.3039 29.4468C22.3522 29.2129 22.421 28.9009 22.5051 28.5347C22.6734 27.8014 22.9042 26.8412 23.1535 25.8345L23.1545 25.8306C23.5552 24.2661 23.7975 23.3348 23.9689 22.7691C24.13 22.2377 24.256 21.913 24.4875 21.7007V21.7017Z" fill="#333333" stroke="#333333"/>
<path d="M19.8029 22.3922L19.8156 22.3932C20.0638 22.405 20.3151 22.4541 20.5432 22.5885C20.7748 22.725 20.9379 22.9237 21.0568 23.1588H21.0578C21.1308 23.2992 21.207 23.4747 21.2219 23.6803C21.2376 23.8988 21.1815 24.0977 21.0832 24.2838C20.9102 24.6108 20.5511 24.9912 20.0353 25.5162L20.0363 25.5172C19.7507 25.8123 19.4911 26.0857 19.3049 26.2906C19.2895 26.3076 19.2751 26.3247 19.2609 26.3404C19.2758 26.3571 19.2906 26.3751 19.3068 26.3932C19.3991 26.4958 19.5094 26.615 19.632 26.7437L20.0305 27.1519L20.0334 27.1549C20.5593 27.69 20.9197 28.0733 21.091 28.4C21.1891 28.5872 21.2438 28.7861 21.2248 29.0045C21.2071 29.2072 21.1283 29.3806 21.0578 29.5162L21.0568 29.5152C20.942 29.7427 20.7868 29.9447 20.5539 30.0846C20.3244 30.2222 20.0689 30.2702 19.8137 30.2818L19.8029 30.2828H19.7912C19.6676 30.2828 19.5266 30.2694 19.3654 30.2047C19.2167 30.1449 19.0766 30.0519 18.9299 29.9352C18.6433 29.7069 18.2333 29.3046 17.5617 28.6236C16.8547 27.9166 16.4484 27.5024 16.2258 27.2154C16.1096 27.0656 16.0196 26.9205 15.965 26.7603C15.9086 26.5946 15.9035 26.4496 15.9035 26.3375C15.9035 26.2228 15.9078 26.0748 15.9641 25.9078C16.019 25.7448 16.111 25.5989 16.2277 25.4498C16.4501 25.1659 16.8563 24.7558 17.5617 24.0504C18.2426 23.3695 18.6526 22.9686 18.9348 22.7418C19.079 22.6259 19.2178 22.5327 19.3654 22.4723C19.5265 22.4064 19.6674 22.3922 19.7912 22.3922H19.8029Z" fill="#333333" stroke="#333333"/>
<path d="M29.1899 22.3922C29.3152 22.3922 29.4584 22.4047 29.6216 22.4693C29.7731 22.5293 29.9143 22.623 30.061 22.7398C30.3468 22.9674 30.7575 23.3699 31.438 24.0504C32.1453 24.7577 32.5513 25.1725 32.7739 25.4596C32.8902 25.6095 32.9811 25.7543 33.0356 25.9146C33.092 26.0804 33.0962 26.2254 33.0962 26.3375C33.0962 26.4522 33.0919 26.6002 33.0356 26.7672C32.9807 26.9302 32.8887 27.0761 32.772 27.2252C32.5496 27.509 32.1432 27.9194 31.438 28.6246C30.7575 29.3051 30.3468 29.7076 30.061 29.9352C29.9143 30.052 29.7731 30.1457 29.6216 30.2057C29.4584 30.2702 29.3152 30.2828 29.1899 30.2828C29.0012 30.2828 28.8058 30.2577 28.6118 30.1607C28.4241 30.0669 28.281 29.9277 28.1567 29.7809L28.1577 29.7799C28.0345 29.6367 27.8948 29.4598 27.8228 29.2477C27.7387 29 27.7612 28.7572 27.8618 28.523C27.9518 28.3137 28.1054 28.1082 28.2866 27.898C28.4725 27.6824 28.7192 27.4263 29.0249 27.1158L29.7759 26.3375L29.021 25.5553V25.5543C28.7172 25.2457 28.4716 24.9916 28.2866 24.7769C28.1054 24.5667 27.9518 24.3613 27.8618 24.1519C27.7612 23.9178 27.7387 23.675 27.8228 23.4273C27.8948 23.2149 28.0343 23.0375 28.1577 22.8941C28.2748 22.7558 28.4123 22.6124 28.6001 22.5162C28.7966 22.4156 28.9962 22.3922 29.1899 22.3922Z" fill="#333333" stroke="#333333"/>
</svg>
