<svg width="21" height="21" viewBox="0 0 21 21" fill="none" xmlns="http://www.w3.org/2000/svg">
<path d="M2.75381 3.05243C2.82956 3.04927 2.89607 3.07572 2.96475 3.11005L2.96866 3.112C3.05264 3.15866 3.11946 3.21489 3.16495 3.29071C3.18745 3.32826 3.20387 3.36818 3.21475 3.41083L3.23331 3.54755V3.55048C3.23842 3.82802 3.03732 3.99059 2.8251 4.01727C2.61465 4.04374 2.37475 3.93974 2.2919 3.68134L2.29288 3.68036C2.25776 3.5772 2.28096 3.46031 2.32413 3.36688C2.368 3.27201 2.44197 3.17983 2.53506 3.12958V3.1286C2.61083 3.08651 2.67984 3.05559 2.75381 3.05243Z" fill="#333333" stroke="#333333" stroke-width="0.2"/>
<path d="M4.30658 3.05347C4.34499 3.05277 4.38217 3.05873 4.41986 3.07007L4.53705 3.11597L4.54193 3.1189C4.76242 3.23439 4.82336 3.46295 4.7724 3.65405C4.72166 3.84355 4.55675 4.01242 4.31537 4.01245C4.09777 4.01245 3.91663 3.86869 3.84564 3.67065C3.80606 3.57137 3.83265 3.45352 3.87396 3.36401C3.91666 3.27169 3.98878 3.17889 4.07806 3.12866L4.08002 3.12671C4.15857 3.08538 4.22875 3.05499 4.30658 3.05347Z" fill="#333333" stroke="#333333" stroke-width="0.2"/>
<path d="M5.85345 3.05139C5.92663 3.05293 5.99639 3.07941 6.07318 3.1178C6.38415 3.27328 6.42659 3.71458 6.1474 3.92444L6.14838 3.92542C6.06077 3.99544 5.93826 4.01751 5.83002 4.01038C5.72153 4.00317 5.60324 3.9651 5.52338 3.88538V3.8844C5.29252 3.66145 5.3609 3.2634 5.64545 3.11096C5.71251 3.07521 5.77794 3.04985 5.85345 3.05139Z" fill="#333333" stroke="#333333" stroke-width="0.2"/>
<path d="M10.5732 9.38477C10.7389 9.23011 10.9785 9.2193 11.1562 9.35254L11.1572 9.35156C11.211 9.38946 11.2753 9.43456 11.3115 9.51465C11.3466 9.59267 11.3497 9.68922 11.3349 9.81641C11.3052 10.0707 11.1917 10.5246 10.9755 11.3936C10.7993 12.1024 10.6919 12.5195 10.6161 12.7695C10.5784 12.8941 10.5469 12.9812 10.5175 13.0439C10.4879 13.107 10.4571 13.1506 10.4179 13.1836C10.1227 13.4379 9.63861 13.2527 9.63861 12.8457C9.63868 12.8253 9.64241 12.7954 9.6474 12.7666C9.653 12.7343 9.66163 12.6929 9.67181 12.6436C9.69227 12.5445 9.72181 12.4115 9.75775 12.2549C9.82969 11.9414 9.92837 11.5306 10.0351 11.0996V11.0986L10.246 10.2832C10.3024 10.07 10.3464 9.91082 10.3828 9.79102C10.4532 9.55851 10.5007 9.45126 10.5732 9.38477Z" fill="#333333" stroke="#333333" stroke-width="0.2"/>
<path d="M8.48822 9.7113C8.58357 9.71588 8.67091 9.73393 8.74701 9.77869C8.82406 9.82409 8.88129 9.89152 8.92474 9.97791L8.96283 10.0638C8.97306 10.0934 8.98 10.1243 8.98236 10.1566C8.98721 10.2241 8.97021 10.2882 8.93549 10.3539C8.87079 10.4762 8.73054 10.6261 8.50482 10.8558C8.38213 10.9826 8.27135 11.1017 8.19037 11.1908C8.15483 11.2299 8.12544 11.2624 8.10443 11.2875C8.12549 11.3133 8.15423 11.3479 8.19037 11.3881L8.50482 11.7172V11.7181C8.73442 11.9518 8.87451 12.1024 8.93842 12.224C8.97277 12.2895 8.98912 12.3533 8.98334 12.4203C8.97782 12.4834 8.95258 12.5403 8.92474 12.5941L8.92572 12.5951C8.88299 12.6806 8.82807 12.749 8.75092 12.7953C8.67494 12.8409 8.58642 12.8591 8.48724 12.8636L8.48334 12.8646V12.8636C8.44006 12.8636 8.39529 12.8589 8.34369 12.8383C8.29455 12.8185 8.2443 12.7864 8.18549 12.7396C8.06905 12.6469 7.89819 12.4799 7.60834 12.1859C7.30342 11.881 7.13578 11.71 7.04584 11.5941C6.9999 11.5349 6.9688 11.484 6.95111 11.432C6.93306 11.379 6.93158 11.3318 6.93158 11.2875C6.93158 11.2416 6.93312 11.1935 6.95111 11.14C6.96886 11.0873 6.99982 11.0367 7.04584 10.9779C7.13568 10.8632 7.30314 10.6933 7.60834 10.3881C7.90197 10.0944 8.07249 9.92773 8.18744 9.83533C8.24546 9.78869 8.29514 9.75658 8.34369 9.73669C8.395 9.71573 8.43997 9.7113 8.48334 9.7113H8.48822Z" fill="#333333" stroke="#333333" stroke-width="0.2"/>
<path d="M12.5107 9.7113C12.5553 9.7113 12.6011 9.71516 12.6533 9.73572C12.7033 9.75551 12.7545 9.78842 12.8134 9.83533C12.9296 9.92791 13.1002 10.0948 13.3935 10.3881C13.699 10.6936 13.867 10.8649 13.957 10.9808C14.0029 11.04 14.033 11.091 14.0507 11.1429C14.0688 11.196 14.0712 11.2432 14.0712 11.2875C14.0712 11.3334 14.0687 11.3814 14.0507 11.4349C14.033 11.4877 14.0021 11.5382 13.956 11.597C13.8661 11.7118 13.6987 11.8817 13.3935 12.1869C13.1002 12.4802 12.9296 12.647 12.8134 12.7396C12.7545 12.7865 12.7033 12.8194 12.6533 12.8392C12.6011 12.8598 12.5553 12.8636 12.5107 12.8636C12.4402 12.8636 12.3761 12.8545 12.3144 12.8236C12.2539 12.7933 12.2041 12.7467 12.1552 12.6888V12.6879C12.1037 12.628 12.0564 12.5668 12.0331 12.4984C12.0074 12.4225 12.0133 12.3469 12.0468 12.2689C12.0782 12.196 12.1341 12.1186 12.2099 12.0306C12.2867 11.9416 12.3896 11.8344 12.5204 11.7015L12.9208 11.2875L12.5204 10.8734V10.8724C12.3898 10.7398 12.2866 10.6333 12.2099 10.5443C12.1341 10.4563 12.0782 10.379 12.0468 10.306C12.0133 10.228 12.0074 10.1525 12.0331 10.0765C12.0566 10.0075 12.1041 9.94552 12.1562 9.88513C12.2035 9.8293 12.2507 9.78197 12.3105 9.75134C12.3721 9.71984 12.4371 9.71131 12.5107 9.7113Z" fill="#333333" stroke="#333333" stroke-width="0.2"/>
<path d="M1.64941 12.0586L1.66504 18.5713L10.5166 18.5879L19.3584 18.5947V5.5459H1.6416L1.64941 12.0586ZM1.6416 4.63379H19.3584V2.4209H1.6416V4.63379ZM20.2295 19.1807L20.2178 19.1953L20.1104 19.3184L20.0039 19.4414L19.9893 19.459H1.03711L1.02246 19.4443L0.916016 19.3369L0.794922 19.2158V19.1953L0.77832 10.5332L0.770508 1.87012V1.85059L0.78418 1.83594L0.915039 1.69629L0.916016 1.69531L1.04785 1.56445L1.0625 1.5498H19.9375L19.9521 1.56445L20.084 1.69531L20.2148 1.82715L20.2295 1.8418V19.1807Z" fill="#333333" stroke="#333333" stroke-width="0.1"/>
</svg>
